<svg width="80" height="160" viewBox="0 0 80 160" fill="none" xmlns="http://www.w3.org/2000/svg">
<path d="M67.7214 0.750538C65.2397 2.20858 61.0827 6.39657 56.1191 12.4459V12.8182L60.4622 20.8529L60.6794 21.008C63.8747 16.4478 67.101 12.3218 70.3893 8.8163C70.6375 8.5371 70.7616 8.41301 70.7616 8.41301C70.6375 8.5371 70.5134 8.69221 70.3893 8.8163C69.3346 9.99514 66.1083 13.7178 61.2688 21.1631L61.8272 21.2872C61.8272 21.2872 73.1503 20.1704 78.6102 19.2397L78.9204 18.9605C80.6577 9.21959 77.2142 4.7524 77.2142 4.7524C77.2142 4.7524 72.8711 -2.25861 67.7214 0.750538Z" fill="url(#paint0_linear_8_1626)"/>
<path d="M47.2778 43.1889C48.6738 40.614 50.0698 38.0702 51.4658 35.6195C52.9239 33.0756 54.4129 30.5939 55.933 28.2052C56.0261 28.0811 56.1192 27.926 56.1812 27.7708C57.6703 25.4132 59.1593 23.1796 60.6794 21.008L56.1192 12.4149C55.7779 12.8182 55.4367 13.2525 55.0954 13.6868C53.7925 15.331 52.4275 17.0682 51.0315 18.9295C49.4494 21.039 47.8362 23.2726 46.1921 25.6303C44.672 27.8019 43.1209 30.0975 41.6008 32.4242C40.2979 34.4406 38.9639 36.4881 37.661 38.6286C37.5989 38.7217 37.5679 38.7837 37.5059 38.8768V39.218L43.1829 50.4791L43.4311 50.5721C44.703 48.0904 45.9749 45.6086 47.2778 43.1889Z" fill="url(#paint1_linear_8_1626)"/>
<path d="M22.5531 98.3152C23.5768 95.6473 24.6626 92.9484 25.7484 90.2185C26.8031 87.6126 27.8579 84.9757 28.9747 82.3388C30.0605 79.7019 31.2083 77.0651 32.3561 74.3971C33.5349 71.6982 34.7138 68.9993 35.9237 66.3314C37.1335 63.6945 38.3434 61.0576 39.5843 58.4518C40.0186 57.5211 40.4839 56.5594 40.9492 55.6287C41.7248 54.0156 42.5314 52.4024 43.3069 50.8203C43.338 50.7272 43.4 50.6652 43.431 50.5721L37.5058 38.8768C37.4127 39.0319 37.3197 39.187 37.2266 39.3421C35.8616 41.6067 34.4656 43.9024 33.1317 46.26C31.7667 48.6488 30.4327 51.0685 29.1298 53.5192C28.013 55.5977 26.9583 57.6762 25.9035 59.7857C25.6863 60.22 25.5002 60.6233 25.2831 61.0576C23.9801 63.7255 22.8323 66.2693 21.7775 68.7511C20.5987 71.5431 19.544 74.211 18.6133 76.7548C17.9928 78.43 17.4655 80.0122 16.9381 81.5633C16.5348 82.8662 16.1315 84.2002 15.7592 85.5031C14.8596 88.6053 14.1151 91.6765 13.4946 94.7787L13.5877 95.151L19.2648 106.443L19.4509 106.536C20.2264 104.427 21.033 102.317 21.8706 100.146C22.0878 99.5251 22.3359 98.9357 22.5531 98.3152Z" fill="url(#paint2_linear_8_1626)"/>
<path d="M13.4326 95.182C12.6881 98.9357 12.1607 102.689 11.8815 106.412C11.8815 106.536 11.8505 106.66 11.8505 106.815C9.98914 103.837 5.02559 100.952 5.02559 100.952C8.59314 106.102 11.2921 111.22 11.6954 116.246C9.80301 116.649 7.19714 116.06 4.15697 114.974C7.29021 117.859 9.64789 118.666 10.5786 118.883C7.6935 119.069 4.68435 121.054 1.64417 123.319C6.08034 121.52 9.64789 120.806 12.2227 121.365C8.15883 132.874 4.09493 145.593 0 159.057C1.24089 158.684 1.98542 157.847 2.41973 156.699C3.13324 154.248 7.9727 138.241 15.5111 117.177C15.7282 116.587 15.9454 115.967 16.1625 115.377C16.2246 115.222 16.2866 115.036 16.3487 114.881C17.1553 112.679 17.9618 110.414 18.8305 108.118C19.0166 107.591 19.2337 107.063 19.4199 106.536V106.505L13.4946 94.7787C13.4946 94.9338 13.4636 95.0579 13.4326 95.182Z" fill="url(#paint3_linear_8_1626)"/>
<path d="M61.2689 21.1942C59.9349 23.2416 58.4769 25.5683 56.8947 28.2052C56.8017 28.3292 56.7396 28.4844 56.6466 28.6084C55.2816 30.9041 53.8546 33.3859 52.3345 36.1468C51.0316 38.5045 49.6666 41.0483 48.2396 43.8093C46.9987 46.198 45.7268 48.7108 44.4238 51.4097L44.703 51.5338L59.1283 49.9827L59.4696 49.7345C63.8437 47.7181 65.7981 45.8878 67.6905 43.2509C68.1868 42.5374 68.7142 41.7618 69.2105 40.9863C70.7617 38.5666 72.2817 35.9297 73.6157 33.2928C74.9186 30.749 76.0664 28.2052 76.9661 25.9405C77.5245 24.4825 77.9898 23.1485 78.3 21.9697C78.5792 20.915 78.7964 19.9222 78.9515 18.9916C73.1193 20.0153 65.9532 20.977 61.2689 21.1942Z" fill="url(#paint4_linear_8_1626)"/>
<path d="M43.8656 52.6196C43.3692 53.6743 42.8418 54.7601 42.3144 55.8459C41.7561 57.0247 41.1666 58.2656 40.6082 59.5065C40.329 60.127 40.0188 60.7784 39.7396 61.3989C38.84 63.3222 37.9713 65.3077 37.0407 67.3551C35.9239 69.8679 34.7761 72.5048 33.6282 75.2037C32.5114 77.8096 31.3947 80.4775 30.2779 83.2695C29.1921 85.9064 28.1063 88.6363 27.0205 91.4283C26.0278 93.9411 25.0351 96.4849 24.0424 99.1528C23.9804 99.2769 23.9493 99.401 23.8873 99.5251C22.8946 102.162 21.9263 104.844 20.9026 107.605C20.8716 107.667 20.8162 107.829 20.7852 107.891L20.9994 107.939L25.3143 107.474L25.5579 107.374C25.4648 107.343 25.4074 107.219 25.3143 107.188C31.0224 106.474 38.6228 102.193 43.5553 96.9192C45.82 94.4995 47.8674 91.6145 49.7908 88.2641C51.2178 85.7513 52.5207 82.9903 53.7926 79.9191C54.9094 77.2512 55.9642 74.3351 56.9879 71.2019C55.685 71.8844 54.1649 72.4117 52.5207 72.753C52.2415 72.815 51.9313 72.8771 51.6211 72.9391C51.3109 73.0012 51.0007 73.0322 50.7215 73.0942C56.0573 71.0468 59.4077 67.0759 61.8584 62.2365C60.4624 63.1981 58.1668 64.439 55.4368 65.0595C55.0646 65.1525 54.6923 65.2146 54.289 65.2766C54.1959 65.2766 54.1029 65.3077 54.0098 65.3077C55.8711 64.5321 57.4222 63.6635 58.7872 62.6398C59.0664 62.4226 59.3456 62.2054 59.6248 61.9573C60.0281 61.585 60.4314 61.2127 60.8037 60.8405C61.0518 60.5923 61.269 60.3441 61.5172 60.0649C62.0445 59.4445 62.5409 58.762 63.0062 58.0174C63.1613 57.8003 63.2854 57.5521 63.4405 57.335C63.6267 56.9937 63.7818 56.6525 63.9369 56.3112C64.6814 54.8222 65.2709 53.4882 65.7362 52.3094C65.9844 51.7199 66.1705 51.1926 66.3566 50.6652C66.4187 50.4791 66.4807 50.2619 66.5738 50.0758C66.7599 49.5174 66.915 49.021 67.0391 48.5557C67.2252 47.9042 67.3183 47.3768 67.3804 47.0046C67.1942 47.1597 67.0081 47.2838 66.7599 47.4389C65.1468 48.4006 62.3858 49.2692 60.1522 49.6725C59.842 49.7345 59.6248 49.7656 59.3766 49.8276C59.3973 49.8069 54.422 50.333 44.4508 51.4057C44.3887 51.4678 44.0207 52.2473 43.8656 52.6196Z" fill="url(#paint5_linear_8_1626)"/>
<path d="M20.3194 109.049C19.5439 111.189 18.7373 113.392 17.9617 115.626C17.9617 115.657 17.9307 115.688 17.9307 115.719C17.8066 116.029 17.7135 116.339 17.5895 116.68C17.0621 118.2 16.5967 119.534 15.542 122.637C17.2792 123.443 18.6752 125.522 20.0092 127.91C19.8851 125.46 18.8614 123.133 16.907 121.365C25.5001 121.737 32.9144 119.565 36.7301 113.299C37.0714 112.741 37.3816 112.151 37.6608 111.531C35.9236 113.733 33.752 114.664 29.7191 114.447C35.7064 111.779 38.6845 109.204 41.3524 104.954C41.9729 103.93 42.5933 102.844 43.2138 101.635C37.971 107.001 31.9217 108.522 25.5622 107.374L20.7847 107.901C20.6296 108.242 20.4745 108.646 20.3194 109.049Z" fill="url(#paint6_linear_8_1626)"/>
<defs>
<linearGradient id="paint0_linear_8_1626" x1="437.227" y1="1360.36" x2="3727.5" y2="265.237" gradientUnits="userSpaceOnUse">
<stop stop-color="#F69923"/>
<stop offset="0.3123" stop-color="#F79A23"/>
<stop offset="0.8383" stop-color="#E97826"/>
</linearGradient>
<linearGradient id="paint1_linear_8_1626" x1="-5006.24" y1="15072" x2="6232.17" y2="6182.5" gradientUnits="userSpaceOnUse">
<stop offset="0.3233" stop-color="#9E2064"/>
<stop offset="0.6302" stop-color="#C92037"/>
<stop offset="0.7514" stop-color="#CD2335"/>
<stop offset="1" stop-color="#E97826"/>
</linearGradient>
<linearGradient id="paint2_linear_8_1626" x1="-2382.73" y1="11569.3" x2="8561.59" y2="6974.39" gradientUnits="userSpaceOnUse">
<stop offset="0.3233" stop-color="#9E2064"/>
<stop offset="0.6302" stop-color="#C92037"/>
<stop offset="0.7514" stop-color="#CD2335"/>
<stop offset="1" stop-color="#E97826"/>
</linearGradient>
<linearGradient id="paint3_linear_8_1626" x1="-355.691" y1="5067.34" x2="4512.31" y2="4114.41" gradientUnits="userSpaceOnUse">
<stop stop-color="#282662"/>
<stop offset="0.0954839" stop-color="#662E8D"/>
<stop offset="0.7882" stop-color="#9F2064"/>
<stop offset="0.9487" stop-color="#CD2032"/>
</linearGradient>
<linearGradient id="paint4_linear_8_1626" x1="-4436.67" y1="15109.3" x2="1692.98" y2="310.806" gradientUnits="userSpaceOnUse">
<stop offset="0.3233" stop-color="#9E2064"/>
<stop offset="0.6302" stop-color="#C92037"/>
<stop offset="0.7514" stop-color="#CD2335"/>
<stop offset="1" stop-color="#E97826"/>
</linearGradient>
<linearGradient id="paint5_linear_8_1626" x1="-1604.47" y1="11484.7" x2="8119.04" y2="-720.674" gradientUnits="userSpaceOnUse">
<stop offset="0.3233" stop-color="#9E2064"/>
<stop offset="0.6302" stop-color="#C92037"/>
<stop offset="0.7514" stop-color="#CD2335"/>
<stop offset="1" stop-color="#E97826"/>
</linearGradient>
<linearGradient id="paint6_linear_8_1626" x1="-555.02" y1="5161.4" x2="3144.32" y2="-3637.53" gradientUnits="userSpaceOnUse">
<stop stop-color="#282662"/>
<stop offset="0.0954839" stop-color="#662E8D"/>
<stop offset="0.7882" stop-color="#9F2064"/>
<stop offset="0.9487" stop-color="#CD2032"/>
</linearGradient>
</defs>
</svg>
