<svg width="99" height="99" viewBox="0 0 99 99" fill="none" xmlns="http://www.w3.org/2000/svg">
<path d="M0 86.2348C0 93.2855 5.71532 99 12.7652 99H86.2344C93.2855 99 99 93.2847 99 86.2348V12.7656C99 5.71454 93.2847 0 86.2348 0H12.7656C5.71454 0 0 5.71532 0 12.7652V86.2348Z" fill="#563D7C"/>
<path d="M41.0531 43.7913V29.7715H53.3937C54.5693 29.7715 55.7024 29.8694 56.7937 30.0655C57.885 30.2611 58.8507 30.6107 59.6902 31.1146C60.5294 31.6185 61.2011 32.3181 61.705 33.2133C62.2085 34.109 62.4607 35.2564 62.4607 36.6551C62.4607 39.1738 61.705 40.993 60.1937 42.1121C58.6828 43.2317 56.7519 43.7913 54.4011 43.7913H41.0531ZM27.8726 19.5293V79.4707H56.9198C59.6063 79.4707 62.2229 79.135 64.7694 78.4633C67.3159 77.7916 69.5825 76.7563 71.5695 75.3572C73.556 73.958 75.1373 72.1528 76.3126 69.9423C77.4882 67.7315 78.0756 65.1149 78.0756 62.0927C78.0756 58.3427 77.1661 55.1387 75.3473 52.4804C73.5282 49.8218 70.7717 47.9609 67.0777 46.8974C69.7643 45.6104 71.7934 43.9591 73.1647 41.9443C74.5356 39.9295 75.2212 37.4112 75.2212 34.3886C75.2212 31.5903 74.7595 29.2398 73.836 27.3368C72.9125 25.4341 71.6112 23.9089 69.9321 22.7615C68.2534 21.6141 66.2385 20.7885 63.8877 20.2849C61.5372 19.7811 58.9346 19.5293 56.0802 19.5293H27.8726ZM41.0531 69.2285V52.774H55.4085C58.2629 52.774 60.5576 53.4314 62.2929 54.747C64.0277 56.0622 64.8955 58.2588 64.8955 61.3371C64.8955 62.9044 64.6294 64.1914 64.0977 65.1988C63.5659 66.2062 62.8524 67.0041 61.9568 67.5915C61.0615 68.1793 60.0259 68.5989 58.8507 68.851C57.675 69.1024 56.4441 69.2285 55.1567 69.2285H41.0531Z" fill="white"/>
</svg>
