<svg width="243" height="54" viewBox="0 0 243 54" fill="none" xmlns="http://www.w3.org/2000/svg">
<path d="M20.0887 13.2973H35.2744L32.9227 22.3421C32.5634 23.6027 31.8913 24.6154 30.907 25.3797C29.9212 26.1459 28.7788 26.5278 27.4803 26.5278H20.4248C18.812 26.5278 17.3892 26.9998 16.158 27.9452C14.925 28.8902 14.0636 30.1722 13.5709 31.7928C13.2572 33.0076 13.2235 34.1552 13.4703 35.2351C13.7162 36.315 14.1528 37.2719 14.7802 38.1034C15.4072 38.9368 16.2136 39.6004 17.1998 40.0953C18.1841 40.5912 19.2596 40.8372 20.4248 40.8372H24.7247C25.5316 40.8372 26.1918 41.1643 26.7072 41.816C27.2217 42.4692 27.3678 43.1996 27.1438 44.0097L24.4566 54H19.7532C16.5278 54 13.5595 53.291 10.8495 51.8736C8.13903 50.4561 5.88795 48.5781 4.09678 46.2371C2.30465 43.8981 1.08348 41.232 0.434691 38.2393C-0.21505 35.2465 -0.136265 32.1752 0.670097 29.0246L0.938726 28.0124C1.5066 25.8822 2.42636 23.8628 3.65966 22.0384C4.89175 20.2162 6.34738 18.6638 8.02749 17.3813C9.70714 16.0988 11.5776 15.0976 13.6383 14.3776C15.6981 13.6582 17.8481 13.2973 20.0887 13.2973ZM27.7485 53.9995L40.9853 4.18561C41.3432 2.92597 42.0152 1.91377 43.0015 1.14807C43.9858 0.38285 45.1277 0 46.4282 0H60.4719C63.6968 0 66.6636 0.708964 69.3746 2.12642C72.0841 3.54387 74.3352 5.42331 76.1273 7.76237C77.9185 10.1029 79.1511 12.769 79.8231 15.7612C80.4952 18.7544 80.4045 21.8258 79.554 24.9749L79.2859 25.9876C78.703 28.1474 77.8074 30.1388 76.5981 31.9616C75.3879 33.7838 73.9436 35.3481 72.264 36.6525C70.5839 37.958 68.713 38.9706 66.6532 39.6896C64.5924 40.4105 62.442 40.77 60.2028 40.77H48.0409L50.4595 31.6574C50.8178 30.4426 51.4894 29.4532 52.4756 28.6871C53.4604 27.9228 54.6024 27.5399 55.9023 27.5399H59.7998C61.4121 27.5399 62.8568 27.0451 64.133 26.0548C65.4102 25.0655 66.2498 23.783 66.6532 22.2072C66.9664 21.083 66.9996 19.9797 66.7543 18.8998C66.5075 17.8199 66.0708 16.864 65.4434 16.0311C64.816 15.1991 64.0096 14.5245 63.0248 14.0062C62.039 13.4894 60.964 13.23 59.7998 13.23H52.2734L42.4633 49.8826C42.104 51.0974 41.4319 52.0877 40.4471 52.8524C39.4618 53.6181 38.3413 54 37.0874 54L27.7485 53.9995ZM111.537 27.405L111.739 26.6622C111.828 26.3027 111.773 25.9995 111.571 25.7516C111.369 25.5046 111.089 25.3797 110.731 25.3797H88.8934C87.9527 25.3797 87.1012 25.1775 86.34 24.7723C85.5782 24.367 84.9513 23.8387 84.4591 23.186C83.9655 22.5348 83.6295 21.7805 83.451 20.9247C83.2711 20.0708 83.2935 19.1931 83.5175 18.2924L84.8616 13.1623H114.427C116.264 13.1623 117.943 13.5676 119.466 14.3776C120.989 15.1872 122.255 16.2452 123.263 17.5501C124.271 18.8555 124.965 20.3511 125.346 22.0384C125.726 23.7262 125.692 25.4707 125.245 27.2701L119.937 47.1149C119.399 49.1402 118.313 50.7832 116.678 52.0424C115.042 53.303 113.173 53.9328 111.067 53.9328L89.2294 53.8651C87.3025 53.8651 85.5336 53.4493 83.9214 52.6159C82.3082 51.7844 80.9869 50.6821 79.9565 49.309C78.9261 47.9369 78.2099 46.3616 77.8065 44.5842C77.4036 42.8068 77.4486 40.9955 77.9408 39.1499L78.2099 38.1372C78.5227 36.8785 79.05 35.7076 79.7885 34.6277C80.5279 33.5473 81.3898 32.6252 82.3756 31.86C83.3703 31.0901 84.482 30.4861 85.6679 30.0711C86.8777 29.644 88.1549 29.4299 89.4985 29.4299H107.842L106.498 34.4928C106.139 35.7076 105.467 36.6978 104.482 37.4626C103.497 38.2283 102.377 38.6097 101.123 38.6097H92.9247C92.163 38.6097 91.6703 38.993 91.4468 39.7578C91.3125 40.2536 91.4017 40.6923 91.7154 41.0737C92.0286 41.4565 92.4316 41.6472 92.9247 41.6472H106.162C106.655 41.6472 107.08 41.5123 107.439 41.2425C107.797 40.9721 108.02 40.6131 108.111 40.1626L108.245 39.6224L111.537 27.405ZM150.644 13.2973C153.913 13.2973 156.904 14.0062 159.614 15.4237C162.324 16.8411 164.575 18.7206 166.368 21.0601C168.158 23.4001 169.38 26.0782 170.029 29.0923C170.678 32.1079 170.577 35.1908 169.727 38.3399L166.367 51.0302C166.142 51.9303 165.661 52.6498 164.923 53.19C164.184 53.7301 163.365 54 162.469 54H155.213C154.362 54 153.69 53.6744 153.197 53.0212C152.704 52.3694 152.569 51.6371 152.794 50.8275L156.826 35.5049C157.139 34.3807 157.172 33.2775 156.926 32.1976C156.679 31.1172 156.243 30.1617 155.616 29.3288C154.988 28.4964 154.183 27.8217 153.197 27.3035C152.211 26.7866 151.136 26.5278 149.972 26.5278H142.446L135.928 51.0302C135.704 51.9303 135.223 52.6498 134.484 53.19C133.744 53.7301 132.904 54 131.964 54H124.775C123.968 54 123.307 53.6744 122.793 53.0212C122.278 52.3694 122.132 51.6371 122.356 50.8275L132.301 13.2973H150.644ZM190.22 26.1559C189.683 26.5845 189.301 27.1352 189.078 27.8103L186.054 39.2848C185.875 39.9156 185.988 40.5001 186.39 41.0398C186.793 41.58 187.331 41.8503 188.003 41.8503H215.821L213.671 49.8826C213.312 51.0974 212.64 52.0877 211.655 52.8524C210.669 53.6181 209.549 54 208.295 54H182.964C181.126 54 179.447 53.6067 177.924 52.8186C176.4 52.0319 175.135 50.9744 174.127 49.6461C173.119 48.3197 172.424 46.8112 172.045 45.1239C171.664 43.4361 171.72 41.7149 172.213 39.9599L176.311 24.6373C176.759 22.9734 177.453 21.4429 178.394 20.0474C179.335 18.6533 180.444 17.4604 181.72 16.4702C182.997 15.4804 184.43 14.7047 186.02 14.1411C187.607 13.5793 189.277 13.2939 190.96 13.2973H208.9C210.737 13.2973 212.417 13.7025 213.939 14.5126C215.462 15.3226 216.729 16.3806 217.736 17.685C218.744 18.9904 219.426 20.498 219.785 22.2072C220.143 23.9179 220.098 25.6495 219.651 27.405L218.441 31.9949C217.904 34.0203 216.817 35.6518 215.183 36.889C213.547 38.1267 211.699 38.7451 209.639 38.7451H189.347L190.691 33.7499C191.004 32.5351 191.653 31.5458 192.639 30.7796C193.624 30.0154 194.766 29.6325 196.066 29.6325H204.264C205.025 29.6325 205.517 29.2506 205.742 28.4849L206.01 27.4722C206.145 26.9778 206.055 26.5273 205.742 26.1225C205.428 25.7172 205.025 25.5151 204.532 25.5151H192.035C191.363 25.5151 190.758 25.7287 190.22 26.1559ZM215.753 53.9995L229.258 3.03706C229.482 2.13786 229.964 1.40649 230.703 0.843892C231.442 0.281297 232.282 0 233.223 0H240.412C241.263 0 241.946 0.327068 242.462 0.978819C242.976 1.632 243.122 2.36242 242.898 3.17246L232.82 40.77C232.326 42.751 231.531 44.5498 230.434 46.1699C229.336 47.79 228.038 49.1736 226.537 50.3212C225.036 51.4688 223.367 52.3694 221.531 53.0212C219.694 53.6744 217.768 53.9995 215.753 53.9995Z" fill="#FF6C2C"/>
</svg>
