<svg width="81" height="92" viewBox="0 0 81 92" fill="none" xmlns="http://www.w3.org/2000/svg">
<path d="M80.3343 0L73.0156 81.9875L40.118 91.1078L7.31091 82.0003L0 0H80.3343Z" fill="#264DE4"/>
<path d="M40.167 84.1366L66.7499 76.7668L73.0042 6.70471H40.167V84.1366Z" fill="#2965F1"/>
<path d="M40.1673 37.1175H16.7603L17.6616 47.1744H40.1673V37.1175Z" fill="#EBEBEB"/>
<path d="M40.1669 16.7619H40.1322H14.9487L15.863 26.819H40.1669V16.7619Z" fill="#EBEBEB"/>
<path d="M18.1108 52.2031L19.5198 67.994L40.1209 73.713L40.1671 73.7002V63.2367L40.1231 63.2484L28.9225 60.224L28.2065 52.2031H22.7639H18.1108Z" fill="#EBEBEB"/>
<path d="M52.5164 47.1744L51.3491 60.2176L40.1323 63.2451V73.7081L60.7497 67.994L60.901 66.2949L63.2643 39.8181L63.5097 37.1175L65.3253 16.7619H40.1323V26.819H54.3037L53.3886 37.1175H40.1323V47.1744H52.5164Z" fill="white"/>
</svg>
