<svg width="81" height="92" viewBox="0 0 81 92" fill="none" xmlns="http://www.w3.org/2000/svg">
<path d="M7.3114 81.9998L0 0H80.3343L73.0172 81.9884L40.1159 91.1049L7.3114 81.9998Z" fill="#E44D26"/>
<path d="M66.7505 76.7667L73.0056 6.70483H40.167V84.1379L66.7505 76.7667Z" fill="#F16529"/>
<path d="M40.1329 16.761H14.9473L17.6606 47.1739H40.167V37.1179H26.8596L25.94 26.8199H40.167V16.761H40.1329ZM40.167 63.2032L40.1243 63.2146L28.9238 60.1909L28.212 52.1706H18.1104L19.5197 67.9607L40.1215 73.6549L40.167 73.6407V63.2032Z" fill="#EBEBEB"/>
<path d="M40.1331 47.1739H52.5181L51.3792 60.2137L40.1616 63.2402V73.7033L60.7804 67.9892L63.5421 37.1122H40.1673L40.1331 47.1739ZM65.0853 19.4601L65.3244 16.761H40.1274V26.817H64.419L64.6183 24.5564L65.0853 19.4601Z" fill="white"/>
</svg>
