<svg width="246" height="56" viewBox="0 0 246 56" fill="none" xmlns="http://www.w3.org/2000/svg">
<path fill-rule="evenodd" clip-rule="evenodd" d="M235.671 4.13159L245.999 4.18849C245.999 4.18849 226.796 30.2101 225.228 32.3308C224.719 33.0175 223.945 33.7582 223.553 34.6763C222.561 36.9841 221.543 42.0468 221.543 42.0468L212.092 42.094C212.092 42.094 213.563 36.8168 213.502 34.006C213.449 31.5506 212.195 29.0982 211.492 26.6355C210.781 24.1425 209.816 19.2646 209.816 19.2646H219.533L220.873 24.6252L235.671 4.13159Z" fill="#1A1918"/>
<path fill-rule="evenodd" clip-rule="evenodd" d="M216.112 9.61956C218.019 10.7686 219.188 17.1077 219.188 17.1077C219.188 17.1077 209.215 17.2548 203.787 17.2548H199.096L193.401 42.0468H184.69C184.69 42.0468 190.111 15.1041 191.391 10.2194C191.806 8.63779 194.232 8.90927 198.329 8.90927H204.872C209.097 8.90927 214.036 8.36969 216.112 9.61956ZM175.561 21.6939C175.561 21.6939 175.832 20.1027 174.64 18.2597C173.621 16.6887 172.68 16.3231 169.999 16.2392C162.431 16.0015 162.578 21.61 162.578 21.61L175.561 21.6939ZM183.769 15.271C184.878 19.2718 182.764 28.6724 182.764 28.6724C182.764 28.6724 171.724 28.4882 165.677 28.6724C163.797 28.7298 161.547 28.4679 160.987 29.3426C160.2 30.5684 161.275 32.4553 162.186 33.2523C163.235 34.17 165.278 34.2746 166.012 34.3677C170.92 34.9912 181.192 34.5287 181.192 34.5287L179.413 42.4079C179.413 42.4079 164.897 43.1361 157.637 41.403C156.203 41.0616 154.859 40.3716 153.951 39.3932C153.703 39.1256 153.488 38.7605 153.254 38.4452C153.067 38.1935 152.521 37.3665 152.276 36.7126C150.618 32.2937 152.47 23.8282 154.286 19.2916C154.497 18.766 154.762 18.0991 155.04 17.5325C155.389 16.8261 155.683 16.0285 155.961 15.6061C156.149 15.3149 156.38 15.1273 156.575 14.8524C156.799 14.5274 157.06 14.2125 157.301 13.9314C157.972 13.1541 158.732 12.6044 159.647 11.9216C162.672 9.6562 168.146 7.89761 174.723 8.57076C177.199 8.82537 180.939 9.70973 182.764 12.2562C183.253 12.9362 183.494 14.2858 183.769 15.271ZM143.817 8.87841L152.263 8.82874C152.263 8.82874 147.556 31.1581 145.157 42.0468H135.44C128.65 42.0468 122.603 42.8877 120.03 38.0262C117.534 33.3059 119.916 25.5434 121.034 20.2695C121.825 16.5372 123.491 8.90879 123.491 8.90879L132.242 8.82874C132.242 8.82874 129.769 20.7054 128.74 26.6355C128.372 28.7597 127.612 30.7598 128.405 32.3304C129.159 33.8252 130.215 33.9322 133.43 34.006C134.449 34.0301 137.786 34.006 137.786 34.006L143.817 8.87841ZM104.283 24.9599C105.168 21.8179 106.457 18.4106 106.294 15.5791C106.116 12.5509 103.577 9.79363 101.938 9.21402C97.0034 7.47182 92.3834 9.90743 90.5472 11.8941C88.1718 14.4671 87.3675 17.4727 86.5266 21.6105C85.9007 24.6821 85.3876 27.925 86.5266 30.3205C88.5431 34.5557 94.832 33.6309 101.603 33.6714C102.608 30.9778 103.439 27.9524 104.283 24.9599ZM116.009 12.5644C116.974 19.5795 113.272 27.3227 110.723 34.0562C113.323 34.291 115.601 34.02 115.765 34.2139C115.936 34.4651 114.022 42.2512 113.355 42.2715C111.292 42.325 104.454 42.3819 101.603 42.3819C92.299 42.3819 83.5953 42.988 79.1566 38.3618C77.3541 36.4821 76.1076 33.2586 75.8057 30.9908C75.3033 27.205 75.9331 23.0369 76.8111 19.6002C77.6053 16.4972 78.6233 13.5693 80.1615 10.8887C84.0712 4.06457 90.8722 -1.00097 102.273 0.168372C104.484 0.395972 107.66 1.36424 109.644 2.51333C109.781 2.59385 110.261 2.97576 110.371 3.04279C113.051 4.74834 115.493 8.81862 116.009 12.5644ZM74.8442 8.91891C74.2815 11.4818 73.7188 14.3871 73.1257 16.9196H63.7449C64.4716 14.1122 65.028 11.3213 65.7552 8.87889C68.7569 8.87889 71.5479 8.91891 74.8447 8.91891M63.4097 19.2651H72.4559C71.273 25.8115 68.931 36.3712 67.0952 43.7219C65.9461 48.3222 65.179 51.6788 62.0697 54.1076C61.7915 54.3256 61.6309 54.2219 61.3994 54.4428C60.8266 54.9891 58.1764 55.6227 56.7095 55.7828C54.3241 56.0413 51.6271 55.8166 48.6953 55.7563C49.4625 52.9523 50.3305 49.585 51.0142 47.0718C58.1605 47.9369 58.3413 41.1822 59.7247 34.6763C60.5252 30.917 62.9512 20.7724 63.4097 19.2651Z" fill="#1A1918"/>
<path fill-rule="evenodd" clip-rule="evenodd" d="M42.3024 36.3515L42.1085 36.8539C38.8054 43.2865 32.952 47.2329 24.6031 47.4069C20.7001 47.4875 16.9814 46.4859 14.5521 45.3971C9.30954 43.0415 4.8998 38.6733 2.49167 34.006C-0.962833 27.3155 -1.58584 18.0084 5.59706 11.057C5.70797 11.057 4.72572 12.5644 4.83663 12.5644L4.63892 13.2076C-0.537047 29.4126 15.4099 43.3 30.9118 41.7116C34.6373 41.3297 39.3879 39.2895 42.3024 36.3515Z" fill="#21609B"/>
<path fill-rule="evenodd" clip-rule="evenodd" d="M32.9213 29.6508C36.8214 29.6774 40.8951 27.8546 43.3075 25.2956C41.1969 30.6529 35.086 34.0963 26.8914 33.0012C20.0296 32.0831 13.4934 25.1784 12.8202 18.2598C12.3279 13.2246 14.0826 10.2195 16.9744 6.57404C15.9695 8.48067 15.5938 9.95091 15.5003 10.8888C14.4018 21.7808 24.2012 29.5935 32.9213 29.6508Z" fill="#21609B"/>
<path fill-rule="evenodd" clip-rule="evenodd" d="M42.9159 16.1221C42.3098 17.5128 38.8191 20.1389 37.2775 20.4672C31.1733 21.7677 27.2641 18.8731 25.2162 15.5791C24.9119 15.0873 24.3492 13.7439 24.2484 13.402C23.4542 10.7017 23.8192 6.6174 26.1883 4.50342C25.4746 6.51372 25.3705 8.84855 25.7461 10.3665C25.9737 11.2842 26.6671 12.8865 27.361 13.8943C28.6234 15.7301 29.4244 16.1761 31.046 17.1511C31.7765 17.5899 32.5601 17.9419 32.8986 18.0384C34.4364 18.4912 37.6826 19.6837 42.9159 16.1221Z" fill="#21609B"/>
</svg>
