<svg width="135" height="161" viewBox="0 0 135 161" fill="none" xmlns="http://www.w3.org/2000/svg">
<path d="M98.9118 55.9369C100.667 59.7578 102.625 63.4834 104.366 67.3113C107.716 74.6783 110.26 82.4565 111.317 90.4794C112.373 98.5022 111.914 106.787 109.408 114.48C106.574 123.163 101.195 130.888 94.6037 137.211C86.8066 144.691 76.7979 150.458 66.0012 150.883C58.9662 151.16 51.9624 149.149 45.7325 145.87C40.4969 143.114 35.7173 139.442 31.9039 134.919C28.0905 130.396 25.259 125.01 23.9479 119.24C22.3333 112.136 23.064 104.594 25.5075 97.7299C27.2552 92.8215 29.8458 88.2515 31.6899 83.3786C33.7055 78.0541 34.8307 72.3685 37.5011 67.3404C39.9208 62.7812 43.551 58.8869 45.4792 54.0992C46.6309 51.2397 47.1305 48.1684 47.8742 45.1763C48.6179 42.1843 49.6591 39.1707 51.6843 36.8463C54.1256 34.0455 57.7973 32.5274 61.4872 32.1011C65.1772 31.6749 68.9124 32.2504 72.5339 33.0766C75.4172 33.7341 78.2653 34.5505 81.0515 35.5416C83.4298 36.3877 85.7865 37.3728 87.843 38.8365C90.6453 40.8305 92.7795 43.6383 94.4797 46.6282C96.18 49.6181 97.4815 52.8123 98.9172 55.9375L98.9118 55.9369Z" fill="#020204"/>
<path d="M67.9306 150.951C70.8946 151.124 73.8533 151.412 76.7904 151.855C79.373 152.247 81.9371 152.753 84.4753 153.37C88.4509 154.334 92.4125 155.563 96.5018 155.679C97.578 155.71 98.6575 155.662 99.7137 155.428C100.77 155.194 101.784 154.768 102.627 154.097C103.882 153.096 104.674 151.587 104.975 150.008C105.275 148.43 105.087 146.788 104.624 145.25C103.7 142.174 101.714 139.55 100.078 136.791C99.1371 135.211 98.2991 133.568 97.2805 132.037C96.262 130.507 95.044 129.073 93.4973 128.076C91.3589 126.698 88.7074 126.248 86.1761 126.501C83.6448 126.753 81.2181 127.667 78.959 128.837C75.7923 130.477 72.8115 132.728 71.0854 135.849C70.4845 136.935 70.048 138.101 69.5376 139.233C69.0272 140.365 68.4296 141.478 67.5652 142.368C66.6005 143.361 65.3491 144.03 64.3516 144.989C63.8531 145.474 63.4166 146.027 63.166 146.67C62.9154 147.312 62.8469 148.047 63.0798 148.699C63.2398 149.146 63.5324 149.538 63.8935 149.846C64.2546 150.155 64.6814 150.38 65.1293 150.536C66.0239 150.851 66.9885 150.897 67.9354 150.952L67.9306 150.951Z" fill="#020204"/>
<path d="M59.1197 150.76C56.6493 150.817 54.2048 151.259 51.7905 151.759C49.4774 152.237 47.1752 152.77 44.8902 153.369C41.0347 154.381 37.1745 155.593 33.1892 155.678C32.1405 155.7 31.0842 155.643 30.0619 155.406C29.0395 155.17 28.0501 154.749 27.2298 154.095C25.9769 153.096 25.1803 151.589 24.8856 150.014C24.5908 148.439 24.7708 146.8 25.2278 145.264C26.1423 142.192 28.1034 139.562 29.7094 136.789C30.6218 135.213 31.4269 133.574 32.4137 132.043C33.4004 130.512 34.5888 129.075 36.1107 128.074C38.1844 126.711 40.7707 126.249 43.2405 126.492C45.7104 126.735 48.0773 127.645 50.2556 128.835C53.3307 130.515 56.139 132.826 57.9169 135.841C59.1645 137.959 59.8839 140.381 61.3422 142.361C62.1274 143.427 63.1207 144.347 63.7674 145.499C64.0939 146.075 64.3332 146.709 64.3887 147.369C64.4442 148.029 64.3079 148.715 63.936 149.263C63.6908 149.626 63.3502 149.919 62.9698 150.135C62.5893 150.351 62.1695 150.494 61.741 150.583C60.8788 150.762 60.0003 150.734 59.1246 150.755L59.1197 150.76ZM45.3159 47.8887C44.9688 43.7121 45.0464 39.5123 44.8956 35.3239C44.7457 31.2965 44.375 27.2714 44.5102 23.2435C44.6482 19.1477 45.3348 14.9981 47.1585 11.3173C48.9822 7.63644 51.9441 4.52258 55.5575 2.57493C58.9527 0.742615 62.8684 -0.040433 66.7314 0.0016025C71.9697 0.0587277 77.2209 1.64099 81.4622 4.71389C84.1217 6.63891 86.3582 9.12062 88.1227 11.889C89.6278 14.2522 90.7973 16.8331 91.5313 19.5417C93.0365 25.0925 92.6792 30.9387 92.9724 36.6771C93.2499 42.1158 94.1203 47.5417 93.8239 52.9793C93.7592 54.1649 93.632 55.3689 93.1055 56.4284C92.5924 57.4604 91.7215 58.2904 90.7208 58.8627C89.72 59.435 88.5937 59.7605 87.4549 59.9362C85.1769 60.2876 82.8472 60.0559 80.5525 60.2687C77.222 60.5775 74.0451 61.8127 70.7399 62.3242C66.8058 62.9331 62.7871 62.502 58.8039 62.3425C57.2087 62.2789 55.6082 62.2589 54.0248 62.0601C52.4415 61.8612 50.8614 61.4781 49.4526 60.7268C48.5904 60.2644 47.7858 59.6624 47.138 58.9214C46.4902 58.1804 45.9955 57.3047 45.7492 56.347C45.379 54.9173 45.574 53.4121 45.5794 51.9349C45.5848 50.5844 45.4275 49.2387 45.31 47.893L45.3159 47.8887Z" fill="#020204"/>
<path d="M51.5839 46.2795C51.0202 46.9855 50.6527 47.8354 50.4307 48.7122C50.2086 49.589 50.1278 50.4949 50.0928 51.3982C50.0238 53.2052 50.1337 55.0466 49.6562 56.7906C49.1443 58.6552 47.9985 60.2698 46.8765 61.8445C44.9337 64.5715 42.9693 67.3684 42.0117 70.5761C41.4313 72.5189 41.2378 74.5765 41.4469 76.5931C39.2724 79.7867 37.3889 83.1787 35.8298 86.714C33.4661 92.0719 31.8439 97.7763 31.2732 103.604C30.5748 110.74 31.4877 118.08 34.3057 124.674C36.3428 129.441 39.3812 133.805 43.2981 137.202C45.2894 138.929 47.5016 140.403 49.8729 141.565C58.0714 145.595 68.2031 145.602 76.2653 141.307C80.4785 139.062 84.0354 135.779 87.464 132.457C89.5291 130.456 91.5835 128.408 93.1587 126.003C96.1912 121.372 97.2475 115.744 97.9039 110.248C99.0518 100.637 99.0884 90.4858 94.8752 81.7726C93.4202 78.7669 91.4953 76.0124 89.1729 73.6129C88.5558 69.4201 87.3373 65.3152 85.5664 61.4646C84.2892 58.6865 82.7274 56.042 81.5407 53.2246C81.0535 52.0675 80.6246 50.883 80.0894 49.7502C79.5543 48.6173 78.8823 47.5271 77.9747 46.6595C77.0462 45.7702 75.8891 45.1408 74.6679 44.7377C73.4467 44.3346 72.162 44.1519 70.8793 44.0872C68.3114 43.9579 65.7381 44.2936 63.1696 44.1918C61.1244 44.1109 59.0857 43.752 57.0421 43.8727C56.0203 43.9331 54.9996 44.1152 54.0511 44.5006C53.1026 44.8859 52.2285 45.4798 51.5904 46.279L51.5839 46.2795Z" fill="#FDFDFB"/>
<g filter="url(#filter0_f_16_1189)">
<path d="M50.3252 55.8647C51.2429 58.5259 53.0898 60.7969 55.2757 62.571C56.0032 63.1611 56.7749 63.7049 57.6286 64.0891C58.4822 64.4734 59.4242 64.6927 60.3566 64.6129C61.27 64.5353 62.1388 64.1764 62.938 63.7259C63.7372 63.2753 64.4771 62.7305 65.2516 62.2401C66.5789 61.3994 68 60.7203 69.378 59.9659C71.039 59.0567 72.6493 58.0257 74.0478 56.7539C74.688 56.1692 75.2851 55.5316 75.9922 55.0294C76.6992 54.5271 77.5459 54.1639 78.4108 54.2226C79.0597 54.2668 79.6681 54.5427 80.3035 54.6796C80.6269 54.7481 80.9502 54.782 81.2719 54.7324C81.5937 54.6828 81.9079 54.547 82.1331 54.3121C82.4091 54.0248 82.5298 53.6115 82.5104 53.2127C82.491 52.8139 82.3573 52.4296 82.1709 52.0772C81.799 51.3723 81.2358 50.7649 80.9852 50.0088C80.7621 49.3352 80.8074 48.6076 80.8268 47.8995C80.8462 47.1914 80.8311 46.4498 80.5035 45.8209C80.2545 45.3413 79.8373 44.9613 79.3599 44.7086C78.8824 44.4558 78.3467 44.3313 77.8099 44.2753C76.7348 44.1745 75.6575 44.3831 74.5797 44.444C73.1483 44.5248 71.7116 44.3459 70.2807 44.4321C68.4969 44.5399 66.747 45.0572 64.9595 45.0605C62.9191 45.0643 60.8809 44.3965 58.8654 44.7156C58.0004 44.8525 57.1759 45.1672 56.3454 45.4442C55.5149 45.7212 54.657 45.9653 53.7818 45.9529C52.788 45.9384 51.8255 45.5945 50.8339 45.5234C50.3381 45.4878 49.8304 45.5234 49.3648 45.6975C48.8992 45.8715 48.4783 46.1954 48.2503 46.6368C48.1194 46.8901 48.0547 47.1741 48.0423 47.4587C48.0299 47.7432 48.0693 48.0283 48.1382 48.3048C48.2757 48.8577 48.5284 49.3734 48.731 49.9037C49.4818 51.819 49.6429 53.9176 50.3138 55.862L50.3252 55.8647Z" fill="black" fill-opacity="0.26"/>
</g>
<g opacity="0.3" filter="url(#filter1_f_16_1189)">
<path d="M47.7663 48.2803C49.5491 49.3823 51.1491 50.7345 52.4926 52.2773C53.7392 53.7089 54.7992 55.3322 56.4267 56.3925C57.5763 57.141 58.957 57.563 60.3576 57.6911C62.0024 57.8415 63.6666 57.5982 65.2521 57.1688C66.7217 56.7707 68.1423 56.2108 69.4459 55.4712C71.9239 54.0634 73.9944 51.9998 76.7213 51.0745C77.3179 50.8725 77.9392 50.728 78.5143 50.4789C79.0893 50.2297 79.6298 49.8564 79.9047 49.3282C80.1741 48.8209 80.158 48.2351 80.2442 47.6777C80.3358 47.082 80.5428 46.5052 80.6559 45.9125C80.7691 45.3198 80.7826 44.6854 80.505 44.1403C80.2744 43.6886 79.8556 43.3322 79.3733 43.1053C78.891 42.8785 78.3494 42.7757 77.8083 42.7509C76.7272 42.7013 75.6591 42.9569 74.5813 43.0477C73.1531 43.1679 71.7153 42.9981 70.2823 43.0378C68.4996 43.0875 66.7427 43.4598 64.961 43.5367C62.9282 43.6251 60.9008 43.3292 58.867 43.2637C57.9874 43.2349 57.102 43.2488 56.2349 43.3893C55.3678 43.5298 54.5168 43.7973 53.7828 44.2461C53.0714 44.6814 52.491 45.2721 51.8389 45.7799C51.5129 46.0341 51.1664 46.2689 50.7859 46.4476C50.4054 46.6263 49.9883 46.7479 49.5626 46.7668C49.3432 46.7767 49.1217 46.7593 48.9051 46.7901C48.7233 46.8183 48.5495 46.8793 48.3935 46.9696C48.2375 47.06 48.1024 47.1779 47.9962 47.3166C47.8899 47.4553 47.8145 47.612 47.7743 47.7776C47.7341 47.9433 47.73 48.1146 47.762 48.2818L47.7663 48.2803Z" fill="black"/>
</g>
<path d="M52.4074 23.9403C51.4481 23.9926 50.5292 24.4361 49.827 25.092C49.1248 25.7478 48.6306 26.6074 48.3256 27.5193C47.7166 29.3429 47.854 31.3197 47.9915 33.2318C48.117 34.9682 48.2448 36.7374 48.8952 38.3526C49.2202 39.1599 49.6767 39.9154 50.2856 40.5427C50.8946 41.17 51.661 41.6432 52.5049 41.8545C53.2971 42.0528 54.1421 42.0118 54.9209 41.7671C55.6996 41.5225 56.4104 41.0773 56.9935 40.5072C57.845 39.6745 58.4179 38.5854 58.7466 37.4407C59.0754 36.2961 59.1692 35.0954 59.1519 33.9054C59.1304 32.4159 58.9363 30.9198 58.4696 29.5057C58.0029 28.0916 57.2592 26.7556 56.2207 25.6869C55.7179 25.1696 55.144 24.7142 54.4962 24.3952C53.8484 24.0761 53.1257 23.8966 52.4052 23.9355L52.4074 23.9403Z" fill="url(#paint0_radial_16_1189)"/>
<path d="M69.3929 23.9403C67.8947 24.9643 66.639 26.4059 66.0247 28.1169C65.2508 30.2737 65.5472 32.6869 66.2941 34.8534C67.0594 37.0721 68.3388 39.1863 70.2713 40.5185C71.2376 41.1846 72.3559 41.6411 73.521 41.7796C74.6861 41.9181 75.8976 41.7284 76.9377 41.1867C78.2058 40.526 79.1732 39.369 79.7735 38.0718C80.3739 36.7746 80.6304 35.3395 80.7102 33.9114C80.818 32.0925 80.6347 30.2435 80.0365 28.5222C79.3871 26.6521 78.2042 24.9276 76.5481 23.8514C75.7182 23.3136 74.774 22.9439 73.7942 22.8086C72.8145 22.6733 71.7976 22.7746 70.8755 23.133C70.35 23.3378 69.8585 23.6218 69.3934 23.9414L69.3929 23.9403Z" fill="url(#paint1_radial_16_1189)"/>
<g opacity="0.3" filter="url(#filter2_f_16_1189)">
<path d="M52.0884 39.4568L49.3206 41.9817C48.8334 42.4721 48.3451 42.997 48.1269 43.6523C47.9328 44.2343 47.9695 44.8665 47.8736 45.4738C47.8412 45.6819 47.7927 45.8888 47.7917 46.099C47.7899 46.2043 47.8041 46.3094 47.8337 46.4105C47.8644 46.5113 47.9145 46.6061 47.9873 46.6832C48.1069 46.8109 48.2772 46.8804 48.4486 46.9149C48.62 46.9494 48.7962 46.9537 48.9703 46.9726C49.7549 47.0572 50.4782 47.4376 51.1281 47.886L53.0412 49.2791C54.5125 50.2136 56.271 50.6291 58.0133 50.6954C59.7556 50.7617 61.4936 50.496 63.2031 50.1538C64.5611 49.8822 65.916 49.561 67.2045 49.0522C69.1786 48.274 70.9576 47.076 72.6573 45.8069C73.4296 45.2302 74.1911 44.6358 74.8846 43.9665C75.1201 43.7391 75.3481 43.503 75.6003 43.295C75.8525 43.087 76.1328 42.9059 76.4443 42.8057C76.9185 42.6531 77.4337 42.6968 77.9252 42.7787C78.2954 42.8407 78.6668 42.9242 79.0418 42.908C79.2294 42.9005 79.4175 42.8682 79.5915 42.7981C79.7656 42.7281 79.9268 42.6203 80.0459 42.4748C80.2013 42.2802 80.2854 42.0383 80.2841 41.7893C80.2851 41.5424 80.2086 41.2988 80.0847 41.086C79.8341 40.6602 79.4013 40.373 78.9502 40.1725C78.3326 39.8977 77.6644 39.7629 77.0069 39.6034C74.9887 39.1162 73.027 38.3962 71.1672 37.4725C70.2424 37.0134 69.3435 36.5046 68.4338 36.0175C67.4982 35.5163 66.5449 35.0345 65.529 34.7267C63.2586 34.0385 60.7758 34.2644 58.5355 35.0425C56.0457 35.907 53.7947 37.4477 52.0868 39.4552L52.0884 39.4568Z" fill="black"/>
</g>
<path d="M56.917 36.6049C57.8692 35.534 58.5208 34.2282 59.4359 33.1251C59.8939 32.5738 60.421 32.0715 61.0429 31.7147C61.6648 31.358 62.3859 31.1543 63.1 31.2157C63.8943 31.2847 64.6386 31.6802 65.2201 32.2262C65.8016 32.7721 66.2332 33.4657 66.5781 34.1797C66.9079 34.8685 67.1699 35.6025 67.6452 36.2007C68.1518 36.8388 68.8631 37.2742 69.5045 37.7759C69.8256 38.0265 70.1334 38.2987 70.3872 38.6166C70.641 38.9346 70.8399 39.3043 70.9207 39.7036C71.0002 40.1123 70.9657 40.535 70.821 40.9254C70.6798 41.3134 70.44 41.6648 70.142 41.9515C69.546 42.5254 68.7333 42.8353 67.9141 42.9512C66.2758 43.1829 64.6186 42.6946 62.9647 42.741C61.2903 42.7868 59.6547 43.3791 57.9808 43.3176C57.1438 43.2869 56.295 43.0826 55.6074 42.6046C55.2606 42.3671 54.9676 42.0594 54.7473 41.7014C54.5306 41.343 54.3986 40.9308 54.3846 40.5126C54.3711 40.1138 54.4643 39.715 54.6239 39.3485C54.7834 38.982 55.0081 38.6468 55.2609 38.3375C55.7674 37.7188 56.3856 37.2025 56.9164 36.6054L56.917 36.6049Z" fill="url(#paint2_radial_16_1189)"/>
<g filter="url(#filter3_f_16_1189)">
<path d="M75.5865 6.95758C74.2049 7.93247 74.8085 9.14953 75.4027 10.3716C75.997 11.5936 74.0963 15.1156 74.0758 15.2671C74.0553 15.4186 77.817 13.4819 78.8422 12.2232C80.053 10.7373 83.1124 14.2338 82.9466 13.7011C82.9479 12.7492 76.9688 5.98269 75.5871 6.95758H75.5865Z" fill="#7C7C7C"/>
</g>
<path d="M72.8484 28.4645C72.2852 28.5049 71.7361 28.6973 71.2586 29.0034C70.7811 29.3096 70.3731 29.7121 70.053 30.1783C69.4133 31.1095 69.1315 32.2515 69.0867 33.3795C69.0528 34.2266 69.146 35.0851 69.4273 35.8854C69.7086 36.6857 70.1818 37.4267 70.8355 37.9673C71.5038 38.5207 72.3531 38.8532 73.2202 38.8942C74.0873 38.9351 74.9663 38.6856 75.6777 38.1898C76.2452 37.7948 76.7027 37.251 77.0288 36.6415C77.3548 36.032 77.5515 35.3573 77.6404 34.6718C77.7989 33.4608 77.6199 32.1965 77.06 31.1111C76.5001 30.0258 75.551 29.1317 74.4048 28.7097C73.909 28.5265 73.3754 28.4317 72.8484 28.4694V28.4645Z" fill="#020204"/>
<g filter="url(#filter4_f_16_1189)">
<path d="M74.1925 32.1588C73.7258 32.3431 72.987 32.2272 72.7827 32.6853C72.6615 32.9569 72.8328 33.4037 73.1077 33.5153C73.6639 33.7416 74.5261 33.332 74.7514 32.7742C74.8484 32.5317 74.7013 32.1491 74.4604 32.0467C74.3715 32.009 74.2825 32.1222 74.1931 32.1577L74.1925 32.1588Z" fill="#141413"/>
</g>
<g filter="url(#filter5_f_16_1189)">
<path d="M76.3315 33.3714C76.9566 32.7462 75.8863 31.0863 75.0515 30.4073C74.4469 29.9153 72.6857 29.3995 72.7611 29.9358C72.8366 30.472 73.6234 31.1569 74.1596 31.6802C74.8128 32.3242 76.0351 33.6688 76.3315 33.3714Z" fill="url(#paint3_linear_16_1189)"/>
</g>
<mask id="mask0_16_1189" style="mask-type:luminance" maskUnits="userSpaceOnUse" x="65" y="23" width="16" height="19">
<path d="M69.3932 23.9403C68.0205 25.0866 66.5865 26.4193 66.0249 28.1169C65.3189 30.251 65.1449 32.9225 66.2944 34.8534C68.4069 38.4005 72.9683 42.3174 76.938 41.1857C79.5652 40.4366 80.2292 36.6049 80.7104 33.9103C81.0284 32.1281 81.0316 30.0339 80.0368 28.5211C78.0902 25.5608 74.4175 23.1891 70.8752 23.1319C70.3125 23.1228 69.8243 23.5792 69.3932 23.9403Z" fill="white"/>
</mask>
<g mask="url(#mask0_16_1189)">
<path d="M63.7343 29.3968C65.0238 28.3271 66.511 27.5214 68.1114 27.0256C71.3913 26.0125 75.1173 26.4129 78.0156 28.2516C79.0164 28.8865 79.9083 29.6755 80.8396 30.4095C81.7708 31.1435 82.7581 31.8322 83.8769 32.2256C84.4805 32.438 85.1261 32.5614 85.7631 32.4951C86.3387 32.4347 86.8948 32.2192 87.3712 31.8915C87.8476 31.5638 88.247 31.1273 88.5461 30.6321C89.1454 29.6421 89.3383 28.4414 89.2348 27.2891C89.0284 24.9842 87.728 22.9492 86.6383 20.9084C86.2972 20.2692 85.9722 19.6187 85.5605 19.0222C84.2978 17.192 82.2876 15.9848 80.1794 15.2778C78.0711 14.5707 75.8433 14.3152 73.6369 14.0372C72.6529 13.9132 71.6575 13.7839 70.6729 13.9024C69.5412 14.0388 68.4763 14.4952 67.372 14.7782C66.8477 14.9129 66.3136 15.0072 65.7941 15.1576C65.2746 15.3079 64.7631 15.5187 64.3406 15.856C63.7236 16.3497 63.3355 17.0901 63.1674 17.8624C62.9992 18.6347 63.038 19.4382 63.1609 20.2185C63.4077 21.7793 63.9909 23.3033 63.9359 24.8823C63.8982 25.9666 63.5576 27.0315 63.5991 28.1158C63.6115 28.4392 63.6567 28.7501 63.7338 29.0589" fill="url(#paint4_linear_16_1189)"/>
</g>
<g filter="url(#filter6_f_16_1189)">
<path d="M74.597 19.5013C74.3399 19.8246 74.1076 20.176 73.9233 20.5629C75.0799 20.8119 76.1868 21.2883 77.173 21.9442C79.0835 23.2128 80.5342 25.0677 81.5517 27.1312C81.7888 26.8682 82.0055 26.5859 82.1919 26.2722C81.1691 24.123 79.6892 22.1791 77.7125 20.8669C76.7629 20.2363 75.705 19.7599 74.5975 19.5034L74.597 19.5013Z" fill="url(#paint5_linear_16_1189)"/>
</g>
<g filter="url(#filter7_f_16_1189)">
<path d="M52.2985 20.5548C52.1681 20.5521 52.0415 20.564 51.9105 20.5699L51.6572 20.585C52.4187 20.654 53.1759 20.8588 53.8636 21.167C54.8013 21.5874 55.628 22.1872 56.356 22.87C57.7055 24.1338 58.7084 25.6939 59.3875 27.3484C59.2216 26.0982 58.8459 24.885 58.2762 23.7598C58.01 23.4526 57.7341 23.1508 57.4344 22.8706C56.7069 22.1883 55.8791 21.589 54.9419 21.1676C54.1228 20.7995 53.2098 20.5705 52.298 20.5543L52.2985 20.5548Z" fill="url(#paint6_linear_16_1189)"/>
</g>
<path d="M50.0944 31.8893C49.8939 33.0997 49.8863 34.3694 50.3024 35.5233C50.5718 36.2853 51.0299 36.9767 51.5807 37.5711C51.9418 37.9602 52.3503 38.3138 52.8288 38.5428C53.3074 38.7718 53.8614 38.8694 54.3755 38.7406C54.8498 38.622 55.2658 38.3149 55.5719 37.9338C55.878 37.5528 56.0828 37.0969 56.2283 36.6297C56.6578 35.25 56.5894 33.74 56.1626 32.3593C55.8516 31.3531 55.337 30.3825 54.5313 29.704C54.147 29.3807 53.697 29.1274 53.2082 29.0104C52.7194 28.8935 52.1897 28.9215 51.7327 29.129C51.225 29.3597 50.8316 29.7989 50.574 30.2931C50.3164 30.7873 50.1844 31.3386 50.0933 31.8883L50.0944 31.8893Z" fill="#020204"/>
<g filter="url(#filter8_f_16_1189)">
<path d="M52.6531 31.0136C52.7835 31.3553 53.2211 31.4792 53.4615 31.7546C53.6948 32.0225 53.9395 32.2989 54.0677 32.6304C54.313 33.2641 53.8252 34.204 54.3372 34.6513C54.4978 34.7914 54.8195 34.7947 54.9774 34.6513C55.5945 34.0897 55.4571 32.9569 55.2135 32.1588C54.9925 31.4345 54.4445 30.749 53.7692 30.4046C53.4566 30.2456 52.9878 30.1136 52.7205 30.34C52.548 30.4855 52.5728 30.8034 52.6531 31.0136Z" fill="url(#paint7_linear_16_1189)"/>
</g>
<path d="M47.8378 46.9359C47.8701 47.0949 47.931 47.2485 48.014 47.3886C48.1573 47.6284 48.3664 47.823 48.5922 47.9868C48.818 48.1506 49.0627 48.2886 49.2993 48.4368C50.5571 49.2274 51.5816 50.3392 52.4924 51.5124C53.7141 53.0871 54.7946 54.8348 56.4265 55.98C57.5787 56.7884 58.9572 57.2492 60.3573 57.3898C62.001 57.5553 63.6663 57.2896 65.2518 56.8229C66.7209 56.3901 68.142 55.7828 69.4456 54.9798C71.9247 53.4514 73.9941 51.2111 76.721 50.2066C77.3176 49.9873 77.939 49.8304 78.5135 49.5599C79.088 49.2894 79.629 48.8841 79.9039 48.3107C80.1733 47.7599 80.1572 47.124 80.2434 46.5188C80.335 45.8721 80.542 45.2459 80.6551 44.6024C80.7683 43.9589 80.7818 43.2702 80.5042 42.6785C80.2736 42.188 79.8548 41.8011 79.3725 41.5548C78.8902 41.3085 78.3486 41.197 77.8075 41.17C76.7264 41.1161 75.6583 41.3937 74.5805 41.4923C73.1523 41.6227 71.7145 41.4395 70.2815 41.4815C68.4988 41.5354 66.7419 41.9369 64.9602 42.0231C62.9274 42.1218 60.8995 41.8076 58.8662 41.7267C57.9856 41.6912 57.0985 41.6998 56.2298 41.848C55.361 41.9962 54.5079 42.292 53.7831 42.7927C53.0771 43.281 52.5134 43.946 51.8645 44.5086C51.5401 44.7899 51.1909 45.0475 50.805 45.2345C50.4192 45.4215 49.9929 45.5385 49.5634 45.5293C49.3478 45.5239 49.1161 45.4878 48.9059 45.5547C48.7744 45.5962 48.658 45.677 48.5588 45.7735C48.4597 45.8699 48.3783 45.982 48.3012 46.0968C48.122 46.363 47.9657 46.6438 47.834 46.9364L47.8378 46.9359Z" fill="url(#paint8_radial_16_1189)"/>
<g filter="url(#filter9_f_16_1189)">
<path d="M55.8163 49.1266C55.6148 49.9963 55.7427 50.9099 56.1752 51.6908C56.6078 52.4718 57.3143 53.0649 58.1584 53.3555C59.2244 53.7112 60.4257 53.5366 61.4216 53.0171C61.9982 52.7153 62.5264 52.2917 62.8605 51.7323C63.0295 51.4526 63.1404 51.1418 63.1865 50.8183C63.2296 50.4949 63.2 50.1608 63.0868 49.8563C62.9629 49.5222 62.7419 49.2269 62.4692 48.9962C62.1965 48.7655 61.8737 48.5985 61.5353 48.4864C60.8573 48.2622 60.1287 48.2579 59.4152 48.2924C58.334 48.3443 57.2586 48.48 56.1984 48.6982" fill="#D9B30D"/>
</g>
<g filter="url(#filter10_f_16_1189)">
<path d="M52.3181 42.4349L50.2174 43.8161C49.8633 44.0673 49.4984 44.3389 49.312 44.7301C49.1794 45.0077 49.1492 45.3229 49.1503 45.6301C49.1514 45.9373 49.1665 46.2466 49.1255 46.5463C49.0986 46.7543 49.0425 46.9591 49.0328 47.1687C49.0274 47.2738 49.0355 47.3789 49.063 47.4813C49.0893 47.5835 49.1402 47.6776 49.2112 47.7556C49.3044 47.8542 49.4311 47.9151 49.5615 47.955C49.6919 47.9949 49.8256 48.0143 49.9581 48.0466C50.5914 48.1954 51.1421 48.5839 51.6256 49.0188L53.0483 50.3532C54.4155 51.4655 56.2279 51.9268 57.9848 51.9554C59.7416 51.9839 61.4899 51.6159 63.2096 51.2279L67.211 50.1263C69.2067 49.3907 71.0589 48.2767 72.6638 46.8809C73.3913 46.2483 74.0742 45.5531 74.8912 45.0405C75.6133 44.5868 76.4233 44.2871 77.1578 43.8533C77.2236 43.8145 77.2888 43.7746 77.3475 43.7256C77.4063 43.6765 77.4586 43.6189 77.493 43.5504C77.5523 43.4319 77.5523 43.2918 77.5146 43.1646C77.4769 43.0374 77.4036 42.9253 77.3206 42.8229C77.229 42.7097 77.125 42.6063 77.0134 42.5114C76.246 41.8539 75.2043 41.6157 74.197 41.536C73.1898 41.4562 72.1707 41.5128 71.1791 41.3463C70.2414 41.1846 69.3505 40.8397 68.4457 40.5503C67.4965 40.2433 66.5257 40.0073 65.5415 39.8443C63.2268 39.4671 60.8437 39.5393 58.5479 40.0167C56.361 40.4721 54.2528 41.294 52.3288 42.4311L52.3181 42.4349Z" fill="#604405"/>
</g>
<path d="M52.0886 39.9957C51.0485 40.6963 50.1129 41.5494 49.3207 42.5206C48.868 43.0756 48.4563 43.6792 48.2283 44.3593C48.0489 44.894 47.988 45.4598 47.8748 46.0122C47.8317 46.2191 47.7832 46.4272 47.7832 46.6373C47.7837 46.743 47.7972 46.8491 47.8295 46.9499C47.8619 47.0507 47.9147 47.145 47.988 47.221C48.1092 47.3471 48.279 47.415 48.4504 47.4506C48.6218 47.4861 48.7974 47.491 48.971 47.5109C49.7551 47.5999 50.4767 47.9809 51.1266 48.4282L53.042 49.8175C54.5154 50.7498 56.2728 51.1637 58.0145 51.2311C59.7563 51.2984 61.4943 51.0338 63.2043 50.6922C64.5624 50.4211 65.9172 50.0993 67.2058 49.5906C69.1793 48.8124 70.9588 47.6144 72.6585 46.3453C73.4308 45.7686 74.1923 45.1742 74.8859 44.5048C75.1214 44.2774 75.3494 44.0414 75.6016 43.8334C75.8538 43.6253 76.134 43.4443 76.4455 43.344C76.9198 43.1915 77.435 43.2352 77.9265 43.3171C78.2967 43.3791 78.668 43.4626 79.0431 43.4464C79.2306 43.4389 79.4187 43.4065 79.5928 43.3365C79.7669 43.2664 79.928 43.1586 80.0471 43.0131C80.2026 42.8186 80.2866 42.5766 80.2853 42.3276C80.2864 42.0808 80.2099 41.8372 80.0859 41.6243C79.8353 41.1986 79.4026 40.9114 78.9515 40.7109C78.3339 40.436 77.6656 40.3013 77.0081 40.1418C74.9899 39.6546 73.0282 38.9346 71.1684 38.0109C70.2437 37.5517 69.3447 37.043 68.4351 36.5558C67.4995 36.0546 66.5461 35.5728 65.5303 35.2651C63.2598 34.5769 60.777 34.8027 58.5368 35.5809C56.047 36.4453 53.7959 37.9861 52.0881 39.9936L52.0886 39.9957Z" fill="url(#paint9_linear_16_1189)"/>
<g filter="url(#filter11_f_16_1189)">
<path d="M68.0408 40.4948C67.919 40.3406 67.7444 40.2318 67.5557 40.1768C67.3671 40.1218 67.165 40.1229 66.9715 40.1499C66.5835 40.2161 66.2365 40.4193 65.912 40.6484C64.9905 41.2821 64.1767 42.0646 63.467 42.928C62.5266 44.0705 61.7505 45.3919 61.4902 46.8486C61.4471 47.0938 61.4175 47.3444 61.4482 47.5923C61.4789 47.8402 61.5738 48.0854 61.75 48.2622C61.9041 48.4174 62.1143 48.5122 62.3309 48.5435C62.5476 48.5748 62.7707 48.5446 62.9776 48.4745C63.3926 48.3344 63.7375 48.0434 64.063 47.7524C65.8608 46.1437 67.4868 44.2128 68.1372 41.889C68.2019 41.6556 68.2579 41.4169 68.2558 41.1749C68.2536 40.9329 68.1906 40.6845 68.0408 40.4948Z" fill="#F6DA4A"/>
</g>
<g opacity="0.8" filter="url(#filter12_f_16_1189)">
<path d="M63.7345 37.1643C63.8585 37.5641 64.5041 37.4984 64.877 37.6897C65.2042 37.8578 65.4666 38.227 65.8347 38.2378C66.185 38.2486 66.7315 38.1165 66.7778 37.7689C66.8382 37.3092 66.1667 37.0171 65.735 36.8485C65.1799 36.6318 64.4669 36.5219 63.9458 36.8118C63.8262 36.8781 63.6957 37.0338 63.7367 37.1648L63.7345 37.1643Z" fill="url(#paint10_radial_16_1189)"/>
</g>
<g opacity="0.8" filter="url(#filter13_f_16_1189)">
<path d="M57.5787 36.9325C57.1001 36.7762 56.3085 37.6207 56.5666 38.0535C56.6378 38.172 56.8549 38.3229 57.001 38.2421C57.2219 38.1208 57.4019 37.687 57.6407 37.5172C57.8002 37.4041 57.7646 36.9934 57.5782 36.9331L57.5787 36.9325Z" fill="url(#paint11_radial_16_1189)"/>
</g>
<g filter="url(#filter14_f_16_1189)">
<path d="M78.6812 45.147C79.5317 45.147 80.3167 44.2943 80.4346 43.2424C80.5526 42.1904 79.9587 41.3377 79.1083 41.3377C78.2578 41.3377 77.4728 42.1904 77.3549 43.2424C77.2369 44.2943 77.8308 45.147 78.6812 45.147Z" fill="url(#paint12_linear_16_1189)"/>
</g>
<mask id="mask1_16_1189" style="mask-type:luminance" maskUnits="userSpaceOnUse" x="47" y="22" width="13" height="21">
<path d="M52.4078 23.9403C50.3642 26.5217 47.8173 30.2402 47.9924 33.2366C48.1676 36.233 50.0727 40.7464 52.5059 41.8593C54.9391 42.9722 55.6068 41.8663 56.9951 40.512C58.3833 39.1577 59.0753 36.552 59.154 33.9103C59.2326 31.2685 57.5184 27.4864 56.2223 25.6918C54.9262 23.8972 54.4508 21.3589 52.4067 23.9403H52.4078Z" fill="white"/>
</mask>
<g mask="url(#mask1_16_1189)">
<path d="M50.3384 27.8016C51.7854 26.9394 53.5477 26.74 55.2248 26.8984C56.9019 27.0569 58.5257 27.5494 60.1505 27.9924C61.3426 28.3168 62.5498 28.6176 63.6669 29.1446C64.7841 29.6717 65.8226 30.4466 66.438 31.5175L66.7291 32.0359C66.8336 32.2041 66.957 32.3647 67.1149 32.4832C67.2728 32.6018 67.469 32.6794 67.6668 32.6686C67.7659 32.6632 67.864 32.6363 67.9492 32.5856C68.0343 32.535 68.1071 32.4617 68.1529 32.3743C68.2057 32.2736 68.2219 32.1566 68.2159 32.0424C68.207 31.9287 68.1859 31.8163 68.1529 31.7072C67.746 30.2235 66.7867 28.9652 66.0565 27.6114L64.8181 25.1345C63.2994 22.3537 60.8064 20.1679 57.9738 18.75C55.1413 17.3321 51.9773 16.6504 48.8138 16.465C45.1492 16.2505 41.4738 16.6859 37.8576 17.3219C36.2894 17.5978 34.6996 17.9227 33.3113 18.7026C32.6177 19.0922 31.9818 19.5955 31.4855 20.2169C30.9891 20.8383 30.6361 21.5831 30.5219 22.371C30.412 23.1308 30.5273 23.9123 30.7914 24.6323C31.0554 25.3523 31.4693 26.0108 31.9538 26.6058C32.9222 27.7957 34.1634 28.7259 35.3069 29.7477C36.4505 30.7695 37.5165 31.899 38.79 32.7457C39.4291 33.1687 40.1227 33.519 40.861 33.7249C41.5993 33.9307 42.3862 33.9889 43.1374 33.8348C43.9161 33.6753 44.6372 33.2932 45.2683 32.8098C45.8994 32.3264 46.4464 31.7427 46.9648 31.1402C48.0022 29.9352 48.9712 28.6149 50.3368 27.8011L50.3384 27.8016Z" fill="url(#paint13_radial_16_1189)"/>
</g>
<path d="M101.379 79.4962C104.658 82.1342 106.739 86.1174 107.382 90.2762C107.885 93.5205 107.558 96.8483 106.827 100.048C106.096 103.247 104.967 106.34 103.846 109.425C103.399 110.655 102.95 111.897 102.772 113.194C102.595 114.49 102.708 115.863 103.333 117.013C104.05 118.332 105.388 119.239 106.826 119.667C108.246 120.089 109.779 120.079 111.217 119.722C112.655 119.364 113.996 118.664 115.166 117.755C118.139 115.446 119.933 111.853 120.627 108.155C121.321 104.457 121.002 100.637 120.357 96.9297C119.477 91.8746 117.996 86.9327 116.111 82.159C114.724 78.648 113.101 75.1962 110.835 72.1783C108.616 69.225 105.819 66.739 103.645 63.7523C102.135 61.6775 100.925 59.3601 99.1153 57.5407C98.2099 56.631 97.1537 55.8528 95.9573 55.3878C94.7609 54.9227 93.4173 54.7863 92.1821 55.1345C90.5546 55.5925 89.2181 56.8752 88.5159 58.4122C87.8137 59.9491 87.6843 61.7119 87.9597 63.381C88.3154 65.5339 89.2995 67.5323 90.4096 69.4115C91.6637 71.5332 93.1161 73.5757 95.0098 75.1531C96.9861 76.7995 99.3761 77.8854 101.38 79.4968L101.379 79.4962Z" fill="#020204"/>
<mask id="mask2_16_1189" style="mask-type:luminance" maskUnits="userSpaceOnUse" x="87" y="54" width="35" height="66">
<path d="M101.378 79.4962C104.679 82.1493 106.743 86.1341 107.382 90.2762C108.384 96.7594 106.095 103.251 103.846 109.426C103.397 110.657 102.946 111.905 102.768 113.195C102.589 114.486 102.702 115.862 103.333 117.014C104.048 118.321 105.38 119.237 106.826 119.667C108.247 120.09 109.785 120.077 111.224 119.717C112.662 119.357 114 118.656 115.167 117.755C118.173 115.438 119.972 111.834 120.653 108.139C121.335 104.443 121.004 100.631 120.352 96.9302C119.461 91.8805 117.987 86.9387 116.105 82.1596C114.723 78.6528 113.105 75.2021 110.828 72.1788C108.608 69.2309 105.801 66.7357 103.639 63.7528C102.14 61.6812 100.95 59.3714 99.1443 57.551C98.2412 56.6402 97.1818 55.8615 95.9785 55.3953C94.7753 54.9291 93.4196 54.7896 92.1747 55.1355C91.349 55.3651 90.588 55.8022 89.9592 56.3751C89.3305 56.9479 88.8328 57.6555 88.4817 58.4246C87.7794 59.9621 87.6713 61.7184 87.9522 63.3815C88.3144 65.528 89.2932 67.5274 90.4025 69.412C91.6502 71.531 93.1008 73.5724 95.0025 75.1536C96.9777 76.7957 99.3709 77.8881 101.372 79.4973" fill="white"/>
</mask>
<g mask="url(#mask2_16_1189)">
<g filter="url(#filter15_f_16_1189)">
<path d="M93.6606 74.4132L94.4836 75.1542C96.4956 76.8006 97.5671 78.6491 99.607 80.2615C102.946 82.8995 106.334 87.4528 106.989 91.6111C107.5 94.8554 106.824 96.6176 105.998 100.443C105.173 104.268 102.833 109.684 101.568 113.373C101.064 114.844 102.589 114.236 102.389 115.787C102.289 116.548 102.282 117.319 102.37 118.082L102.408 117.639C102.651 115.525 103.299 113.492 104.005 111.498C105.362 107.66 106.921 103.9 107.995 99.9611C109.069 96.0227 108.95 93.1901 108.39 89.8057C107.685 85.5504 105.209 81.6212 101.703 79.0274C99.2235 77.1934 96.3008 76.0175 93.6623 74.4132H93.6606Z" fill="#838384"/>
</g>
</g>
<g opacity="0.25" filter="url(#filter16_f_16_1189)">
<path d="M42.5369 72.0285C43.0843 72.8498 42.1966 75.6812 54.956 73.8689C54.956 73.8689 52.7153 74.1151 50.5063 74.6255C47.0725 75.775 44.0803 77.0598 41.7724 78.7617C39.4856 80.4442 37.8116 82.6403 35.7134 84.5265C35.7134 84.5265 39.1111 78.3182 39.9578 76.4497C40.8044 74.5813 39.816 74.6713 40.4866 71.9153C41.1572 69.1593 42.7963 66.5223 42.7963 66.5223C42.7963 66.5223 41.4576 70.4079 42.5369 72.0279V72.0285Z" fill="url(#paint14_radial_16_1189)"/>
</g>
<g opacity="0.42" filter="url(#filter17_f_16_1189)">
<path d="M83.5663 71.2874C80.9661 73.0982 79.4425 72.8842 76.2872 73.2383C73.1318 73.5924 64.5938 73.4646 64.5938 73.4646C64.5938 73.4646 65.83 73.4415 68.5699 73.9518C71.3097 74.4622 76.8978 74.9499 80.0445 76.1479C83.1912 77.3459 84.3386 77.6876 86.2512 78.8964C88.9728 80.6177 90.9711 83.3139 93.5735 85.2001C93.5735 85.2001 93.6996 82.6974 92.6487 80.8284C91.5978 78.9594 88.7685 76.0132 87.9429 73.262C87.1173 70.5108 86.7174 65.1071 86.7174 65.1071C86.7174 65.1071 86.1677 69.475 83.5669 71.2863L83.5663 71.2874Z" fill="url(#paint15_radial_16_1189)"/>
</g>
<g opacity="0.2" filter="url(#filter18_f_16_1189)">
<path d="M59.1103 67.4191L58.7346 69.7601C58.6592 70.1428 58.5757 70.5254 58.4329 70.8881C58.29 71.2508 58.0858 71.5952 57.7969 71.856C57.5436 72.0845 57.2343 72.2419 56.9239 72.3841C55.7124 72.9392 54.4158 73.3073 53.0933 73.4727L54.675 73.6172C55.0064 73.6533 55.3389 73.6937 55.6623 73.7767C55.9856 73.8597 56.3009 73.9923 56.5698 74.1836C56.8651 74.3991 57.0969 74.6945 57.2704 75.0167C57.6153 75.6591 57.7306 76.398 57.7948 77.1185C57.8756 78.0471 57.8821 78.9832 57.8126 79.9123C57.8751 79.2904 58.0055 78.6749 58.2006 78.081C58.5525 77.0107 59.1189 76.0073 59.882 75.1784C60.1849 74.8497 60.5179 74.5479 60.8844 74.2903C62.0202 73.4982 63.4112 73.1596 64.784 73.3413C63.3917 73.398 62.0225 72.973 60.907 72.1378C60.3455 71.7148 59.8561 71.1877 59.5166 70.5723C58.9893 69.6078 58.8448 68.48 59.1119 67.4137L59.1103 67.4191Z" fill="url(#paint16_radial_16_1189)"/>
</g>
<g opacity="0.1" filter="url(#filter19_f_16_1189)">
<path d="M55.7856 85.7638C55.1227 88.2871 54.6674 90.8604 54.4243 93.4579C54.081 97.129 54.1635 100.826 53.9662 104.508C53.8046 107.633 53.4327 110.79 53.9749 113.872C54.2335 115.341 54.6986 116.774 55.3518 118.116C55.4555 117.603 55.5314 117.086 55.5792 116.566C55.8093 114.067 55.3884 111.561 55.2462 109.056C54.9972 104.665 55.6051 100.271 55.8524 95.8858C56.0425 92.5139 56.02 89.1334 55.7851 85.7644L55.7856 85.7638Z" fill="black"/>
</g>
<g filter="url(#filter20_f_16_1189)">
<path d="M86.0659 47.9221C84.9007 48.9838 86.6123 50.5779 87.424 52.4512C87.9284 53.6153 89.3247 55.2563 90.6747 54.9938C91.6906 54.796 92.3206 53.3339 92.2246 52.3046C92.0392 50.316 90.3616 49.8509 89.1436 49.1681C88.179 48.627 86.884 47.1773 86.0664 47.9232L86.0659 47.9221Z" fill="#838384"/>
</g>
<g opacity="0.2" filter="url(#filter21_f_16_1189)">
<path d="M123.45 134.833C123.193 135.676 122.811 136.477 122.315 137.21C121.22 138.834 119.629 140.056 118.039 141.182C115.327 143.104 112.503 144.867 109.98 147.056C108.289 148.52 106.748 150.161 105.319 151.888C104.097 153.365 102.948 154.917 101.555 156.23C100.15 157.556 98.4951 158.627 96.712 159.21C94.5438 159.92 92.2527 159.885 90.1641 159.35C88.7004 158.975 87.2731 158.323 86.3667 157.142C85.4563 155.958 85.1614 154.366 85.0562 152.803C84.8697 150.038 85.2001 147.214 85.5006 144.409C85.7507 142.078 85.9809 139.745 86.0761 137.418C86.2422 133.187 85.9671 128.992 85.3943 124.876C85.2986 124.186 85.194 123.492 85.2521 122.782C85.3102 122.072 85.5482 121.333 86.0468 120.785C86.5072 120.279 87.1497 119.979 87.79 119.831C88.4303 119.684 89.0795 119.67 89.7231 119.659C91.2394 119.619 92.7646 119.53 94.2582 119.662C95.2007 119.746 96.1249 119.918 97.0656 120.009C98.6362 120.16 100.264 120.08 101.84 119.619C103.536 119.122 105.153 118.189 106.876 117.933C107.583 117.828 108.293 117.84 108.979 117.937C109.68 118.035 110.378 118.229 110.917 118.657C111.326 118.982 111.626 119.429 111.861 119.905C112.21 120.615 112.425 121.398 112.547 122.201C112.656 122.912 112.694 123.645 112.878 124.334C113.18 125.465 113.863 126.428 114.686 127.211C115.509 127.995 116.471 128.614 117.431 129.224C118.388 129.831 119.35 130.435 120.372 130.935C120.852 131.17 121.345 131.383 121.803 131.654C122.262 131.925 122.689 132.257 122.993 132.697C123.406 133.292 123.572 134.072 123.448 134.839" fill="url(#paint17_linear_16_1189)"/>
</g>
<mask id="mask3_16_1189" style="mask-type:luminance" maskUnits="userSpaceOnUse" x="87" y="112" width="48" height="49">
<path d="M134.201 136.851C134.691 137.712 133.355 138.677 132.683 139.404C131.206 141.007 129.207 142.046 127.35 143.188C124.163 145.147 120.549 146.369 117.423 148.424C115.331 149.8 113.474 151.508 111.571 153.135C109.942 154.528 108.616 156.302 106.811 157.457C105.006 158.611 103.015 159.695 100.888 159.963C98.3107 160.286 95.5682 159.825 93.1818 158.796C91.5139 158.077 89.8621 156.975 88.8904 155.439C87.9134 153.895 87.7803 151.915 87.687 150.091C87.5216 146.825 88.4216 143.591 88.8608 140.351C89.2273 137.655 89.8594 134.992 90.0788 132.28C90.4776 127.354 89.6584 122.36 90.2512 117.453C90.4425 115.87 90.1542 113.864 91.3355 112.795C92.4338 111.801 94.2618 112.191 95.7438 112.222C97.5465 112.26 99.318 112.734 101.074 113.147C102.182 113.408 103.228 113.907 104.346 114.123C106.2 114.48 108.1 114.697 109.987 114.636C112.027 114.569 113.995 113.668 116.036 113.685C116.872 113.692 117.719 113.837 118.507 114.116C119.306 114.399 120.117 114.766 120.729 115.353C121.195 115.8 121.5 116.407 121.742 117.007C122.104 117.903 122.224 118.881 122.371 119.836C122.502 120.685 122.289 121.599 122.594 122.402C123.581 124.988 125.6 127.105 127.566 129.053C128.505 130.096 129.738 130.958 130.889 131.655C132.113 132.396 133.243 132.976 133.833 134.251C134.189 135.051 133.54 136.277 134.202 136.852L134.201 136.851Z" fill="white"/>
</mask>
<g mask="url(#mask3_16_1189)">
<path d="M134.201 136.851C133.84 137.778 133.324 138.644 132.683 139.404C131.269 141.083 129.305 142.191 127.35 143.188C124.014 144.887 120.559 146.379 117.423 148.424C115.323 149.794 113.384 151.403 111.571 153.135C110.02 154.618 108.55 156.2 106.811 157.457C105.056 158.723 103.028 159.641 100.888 159.963C98.2854 160.353 95.5962 159.848 93.1818 158.796C91.4907 158.06 89.8642 157.005 88.8904 155.439C87.9128 153.866 87.6897 151.942 87.687 150.091C87.6827 146.816 88.2895 143.57 88.8608 140.351C89.335 137.671 89.7877 134.986 90.0787 132.28C90.6085 127.36 90.6047 122.39 90.2512 117.453C90.1973 116.627 90.1229 115.792 90.2469 114.972C90.3708 114.152 90.7077 113.335 91.3355 112.795C91.9159 112.295 92.6936 112.075 93.4588 112.033C94.2241 111.991 94.9861 112.112 95.7438 112.223C97.5293 112.483 99.3287 112.689 101.074 113.148C102.175 113.437 103.247 113.827 104.346 114.123C106.18 114.619 108.1 114.856 109.987 114.636C112.019 114.399 113.991 113.636 116.036 113.685C116.875 113.706 117.706 113.864 118.507 114.116C119.324 114.374 120.129 114.742 120.729 115.353C121.185 115.817 121.503 116.401 121.742 117.008C122.098 117.91 122.289 118.871 122.371 119.837C122.444 120.693 122.432 121.558 122.594 122.402C122.861 123.79 123.59 125.055 124.496 126.14C125.402 127.224 126.49 128.144 127.565 129.054C128.643 129.959 129.726 130.862 130.889 131.656C131.434 132.029 131.997 132.378 132.515 132.788C133.033 133.197 133.509 133.675 133.832 134.251C134.272 135.032 134.406 135.98 134.2 136.852L134.201 136.851Z" fill="url(#paint18_linear_16_1189)"/>
</g>
<mask id="mask4_16_1189" style="mask-type:luminance" maskUnits="userSpaceOnUse" x="87" y="112" width="48" height="49">
<path d="M134.201 136.851C134.691 137.712 133.355 138.677 132.683 139.404C131.206 141.007 129.207 142.046 127.35 143.188C124.163 145.147 120.549 146.369 117.423 148.424C115.331 149.8 113.474 151.508 111.571 153.135C109.942 154.528 108.616 156.302 106.811 157.457C105.006 158.611 103.015 159.695 100.888 159.963C98.3107 160.286 95.5682 159.825 93.1818 158.796C91.5139 158.077 89.8621 156.975 88.8904 155.439C87.9134 153.895 87.7803 151.915 87.687 150.091C87.5216 146.825 88.4216 143.591 88.8608 140.351C89.2273 137.655 89.8594 134.992 90.0788 132.28C90.4776 127.354 89.6584 122.36 90.2512 117.453C90.4425 115.87 90.1542 113.864 91.3355 112.795C92.4338 111.801 94.2618 112.191 95.7438 112.222C97.5465 112.26 99.318 112.734 101.074 113.147C102.182 113.408 103.228 113.907 104.346 114.123C106.2 114.48 108.1 114.697 109.987 114.636C112.027 114.569 113.995 113.668 116.036 113.685C116.872 113.692 117.719 113.837 118.507 114.116C119.306 114.399 120.117 114.766 120.729 115.353C121.195 115.8 121.5 116.407 121.742 117.007C122.104 117.903 122.224 118.881 122.371 119.836C122.502 120.685 122.289 121.599 122.594 122.402C123.581 124.988 125.6 127.105 127.566 129.053C128.505 130.096 129.738 130.958 130.889 131.655C132.113 132.396 133.243 132.976 133.833 134.251C134.189 135.051 133.54 136.277 134.202 136.852L134.201 136.851Z" fill="white"/>
</mask>
<g mask="url(#mask4_16_1189)">
<g filter="url(#filter22_f_16_1189)">
<path d="M132.521 135.152C132.188 135.988 131.72 136.764 131.136 137.448C129.841 138.965 128.048 139.956 126.265 140.849C123.219 142.374 120.066 143.715 117.201 145.556C115.285 146.787 113.514 148.232 111.856 149.792C110.438 151.125 109.094 152.549 107.509 153.677C105.903 154.819 104.05 155.642 102.1 155.929C99.723 156.28 97.2709 155.825 95.0624 154.881C93.5227 154.222 92.0353 153.28 91.1434 151.863C90.2563 150.452 90.0494 148.721 90.044 147.054C90.037 144.109 90.5926 141.196 91.1165 138.298C91.5514 135.889 91.9652 133.476 92.2288 131.043C92.7084 126.619 92.6858 122.152 92.3861 117.712C92.336 116.969 92.2784 116.218 92.3926 115.481C92.5069 114.745 92.8119 114.012 93.3767 113.525C93.9064 113.069 94.6178 112.869 95.3168 112.832C96.0158 112.795 96.711 112.909 97.4024 113.01C99.0315 113.25 100.675 113.43 102.269 113.841C103.274 114.101 104.254 114.451 105.257 114.719C106.933 115.166 108.686 115.379 110.409 115.18C112.263 114.966 114.067 114.28 115.933 114.325C116.698 114.344 117.458 114.487 118.191 114.713C118.936 114.942 119.673 115.27 120.22 115.825C120.633 116.242 120.918 116.77 121.145 117.312C121.482 118.119 121.702 118.981 121.719 119.856C121.738 120.769 121.538 121.685 121.662 122.59C121.763 123.324 122.073 124.017 122.471 124.643C122.868 125.269 123.351 125.834 123.83 126.4C124.756 127.494 125.684 128.608 126.845 129.447C128.166 130.403 129.734 130.962 131.099 131.855C131.506 132.121 131.9 132.422 132.187 132.814C132.426 133.148 132.582 133.535 132.64 133.942C132.699 134.349 132.659 134.764 132.523 135.152H132.521Z" fill="#CD8907"/>
</g>
</g>
<mask id="mask5_16_1189" style="mask-type:luminance" maskUnits="userSpaceOnUse" x="87" y="112" width="48" height="49">
<path d="M134.201 136.851C134.691 137.712 133.355 138.677 132.684 139.404C131.205 141.007 129.207 142.046 127.349 143.188C124.162 145.147 120.549 146.376 117.422 148.424C115.33 149.8 113.474 151.508 111.569 153.136C109.941 154.528 108.615 156.303 106.809 157.456C105.003 158.609 103.013 159.694 100.886 159.963C98.3083 160.287 95.566 159.824 93.1865 158.796C91.5185 158.077 89.8603 156.974 88.8951 155.439C87.9182 153.895 87.7845 151.916 87.6921 150.091C87.5258 146.825 88.4263 143.592 88.8661 140.351C89.232 137.655 89.864 134.992 90.0839 132.281C90.4824 127.355 89.6638 122.361 90.2564 117.454C90.4412 115.871 90.159 113.865 91.3405 112.796C92.4387 111.801 94.2663 112.198 95.7483 112.223C97.5513 112.262 99.3228 112.736 101.078 113.148C102.186 113.408 103.232 113.909 104.35 114.124C106.198 114.482 108.104 114.699 109.991 114.637C112.031 114.571 113.999 113.669 116.04 113.686C116.877 113.693 117.724 113.839 118.512 114.118C119.311 114.401 120.122 114.769 120.734 115.354C121.2 115.802 121.504 116.409 121.746 117.015C122.109 117.911 122.228 118.889 122.375 119.844C122.505 120.692 122.292 121.607 122.598 122.409C123.584 124.995 125.604 127.112 127.569 129.06C128.509 130.103 129.741 130.965 130.893 131.662C132.116 132.403 133.246 132.982 133.837 134.258C134.193 135.058 133.544 136.284 134.206 136.859L134.201 136.851Z" fill="white"/>
</mask>
<g mask="url(#mask5_16_1189)">
<g filter="url(#filter23_f_16_1189)">
<path d="M132.333 134.211C131.962 135.051 131.481 135.834 130.91 136.529C129.584 138.141 127.793 139.252 125.906 139.964C122.801 141.137 119.41 141.295 116.362 142.631C114.504 143.445 112.832 144.672 111.139 145.832C109.77 146.768 108.372 147.671 106.869 148.326C105.172 149.067 103.366 149.482 101.555 149.774C100.403 149.96 99.2374 150.095 98.0738 150.031C96.9103 149.966 95.743 149.694 94.7168 149.101C93.9382 148.651 93.2385 148.003 92.8221 147.163C92.3601 146.23 92.28 145.134 92.2911 144.075C92.3195 141.255 92.9231 138.466 92.9046 135.646C92.8886 133.192 92.4026 130.768 92.2628 128.318C91.9936 123.607 93.0051 118.813 92.115 114.191C91.9733 113.451 91.7811 112.712 91.7904 111.956C91.7953 111.578 91.852 111.199 91.9844 110.849C92.1168 110.499 92.3312 110.182 92.6158 109.96C92.856 109.775 93.1393 109.662 93.4307 109.61C93.722 109.559 94.0202 109.569 94.3127 109.615C94.8967 109.706 95.4535 109.935 96.0221 110.105C97.6494 110.589 99.3686 110.579 101.022 110.945C102.06 111.174 103.065 111.549 104.092 111.831C105.817 112.295 107.615 112.503 109.384 112.295C111.288 112.073 113.146 111.382 115.059 111.432C115.843 111.452 116.622 111.598 117.378 111.824C118.135 112.05 118.89 112.369 119.463 112.946C119.875 113.363 120.171 113.896 120.413 114.447C120.764 115.252 121.008 116.127 121.003 117.016C121 117.479 120.929 117.938 120.887 118.397C120.846 118.857 120.833 119.33 120.943 119.777C121.053 120.224 121.284 120.631 121.548 120.999C121.813 121.366 122.112 121.703 122.385 122.063C123.15 123.07 123.697 124.244 124.292 125.376C124.888 126.509 125.556 127.63 126.498 128.445C127.779 129.555 129.441 129.999 130.869 130.875C131.287 131.132 131.692 131.433 131.986 131.845C132.222 132.176 132.377 132.566 132.437 132.978C132.497 133.391 132.461 133.813 132.331 134.206L132.333 134.211Z" fill="#F5C021"/>
</g>
</g>
<g filter="url(#filter24_f_16_1189)">
<path d="M91.7905 114.634C93.556 114.156 95.0596 115.494 96.3401 116.505C97.1673 117.211 98.3626 117.033 99.3779 117.066C101.059 117.005 102.733 117.348 104.415 117.14C107.727 116.859 110.973 116.046 114.3 115.9C115.89 115.8 117.674 115.708 119.047 116.636C119.604 117.022 120.419 118.651 120.969 118.04C120.742 116.327 119.472 114.668 117.767 114.212C116.434 114.002 115.073 114.368 113.731 114.25C109.731 114.155 105.759 113.412 101.749 113.625C98.9592 113.649 96.1725 113.52 93.3873 113.411C92.2933 113.187 91.9069 114.16 91.3125 114.532" fill="url(#paint19_linear_16_1189)"/>
</g>
<g opacity="0.75" filter="url(#filter25_f_16_1189)">
<path d="M99.7055 82.0684C100.345 81.9695 104.295 85.3277 103.756 86.5807C103.216 87.8337 102.201 87.0762 101.475 87.0846C100.749 87.093 98.7642 87.9942 98.4316 87.4256C98.099 86.857 99.3097 85.5286 99.9433 84.4189C100.454 83.525 99.0653 82.1737 99.7057 82.0747L99.7055 82.0684Z" fill="#7C7C7C"/>
</g>
<g opacity="0.25" filter="url(#filter26_f_16_1189)">
<path d="M43.9691 60.9323C43.9052 60.1586 42.8004 60.0428 42.3077 60.4285C41.8916 60.7548 41.5013 61.8679 41.8603 62.3035C42.4438 63.0094 44.0562 61.9938 43.9691 60.9334L43.9691 60.9323Z" fill="#7C7C7C"/>
</g>
<g opacity="0.35" filter="url(#filter27_f_16_1189)">
<path d="M115.597 117.323C115.293 116.729 114.741 116.285 114.125 116.028C113.509 115.771 112.834 115.688 112.167 115.694C110.833 115.704 109.507 116.052 108.179 115.936C107.056 115.839 105.991 115.417 104.892 115.151C103.761 114.882 102.562 114.774 101.44 115.074C100.24 115.401 99.1818 116.202 98.5189 117.254C97.9347 118.181 97.6566 119.276 97.5704 120.369C97.4842 121.461 97.5774 122.56 97.6879 123.651C97.7677 124.44 97.8571 125.23 98.0479 126C98.2387 126.771 98.5351 127.522 98.9996 128.164C99.6679 129.089 100.661 129.749 101.732 130.145C103.501 130.791 105.447 130.757 107.192 130.049C110.243 128.725 112.824 126.35 114.398 123.421C114.961 122.372 115.398 121.254 115.681 120.098C115.793 119.639 115.882 119.17 115.886 118.697C115.89 118.224 115.807 117.743 115.592 117.323H115.597Z" fill="url(#paint20_radial_16_1189)"/>
</g>
<g opacity="0.35" filter="url(#filter28_f_16_1189)">
<path d="M115.597 116.7C115.293 116.271 114.741 115.95 114.125 115.764C113.509 115.578 112.834 115.518 112.167 115.522C110.833 115.53 109.507 115.781 108.179 115.697C107.056 115.627 105.991 115.322 104.892 115.13C103.761 114.935 102.562 114.857 101.44 115.074C100.24 115.31 99.1818 115.89 98.5189 116.65C97.9347 117.32 97.6566 118.112 97.5704 118.902C97.4842 119.692 97.5774 120.486 97.6879 121.275C97.7677 121.845 97.8571 122.416 98.0479 122.973C98.2387 123.53 98.5351 124.073 98.9996 124.537C99.6679 125.206 100.661 125.683 101.732 125.969C103.501 126.437 105.447 126.412 107.192 125.9C110.243 124.943 112.824 123.226 114.398 121.108C114.961 120.35 115.398 119.542 115.681 118.706C115.793 118.374 115.882 118.035 115.886 117.693C115.89 117.351 115.807 117.004 115.592 116.7H115.597Z" fill="url(#paint21_radial_16_1189)"/>
</g>
<path d="M118.132 111.766C117.913 111.171 117.529 110.643 117.059 110.219C116.589 109.794 116.035 109.469 115.452 109.221C114.285 108.725 113.016 108.542 111.77 108.307L108.252 107.619C107.028 107.411 105.763 107.278 104.552 107.551C103.493 107.79 102.513 108.338 101.711 109.071C100.909 109.804 100.283 110.718 99.8328 111.712C99.0395 113.452 98.79 115.411 98.9414 117.318C99.0546 118.737 99.4129 120.199 100.348 121.274C101.102 122.141 102.173 122.683 103.276 123.009C105.176 123.571 107.247 123.541 109.129 122.925C112.26 121.867 114.967 119.831 116.852 117.116C117.466 116.227 117.99 115.258 118.228 114.205C118.409 113.396 118.415 112.545 118.132 111.771V111.766Z" fill="#020204"/>
<mask id="mask6_16_1189" style="mask-type:luminance" maskUnits="userSpaceOnUse" x="98" y="107" width="21" height="17">
<path d="M118.132 111.766C117.913 111.171 117.529 110.643 117.059 110.219C116.589 109.794 116.035 109.469 115.452 109.221C114.285 108.725 113.016 108.542 111.77 108.307L108.252 107.619C107.028 107.411 105.763 107.278 104.552 107.551C103.493 107.79 102.513 108.338 101.711 109.071C100.909 109.804 100.283 110.718 99.8328 111.712C99.0395 113.452 98.79 115.411 98.9414 117.318C99.0546 118.737 99.4129 120.199 100.348 121.274C101.102 122.141 102.173 122.683 103.276 123.009C105.176 123.571 107.247 123.541 109.129 122.925C112.26 121.867 114.967 119.831 116.852 117.116C117.466 116.227 117.99 115.258 118.228 114.205C118.409 113.396 118.415 112.545 118.132 111.771" fill="white"/>
</mask>
<g mask="url(#mask6_16_1189)">
<g filter="url(#filter29_f_16_1189)">
<path d="M105.215 106.984C104.921 107 104.629 107.034 104.339 107.086C102.469 107.418 100.757 108.6 99.7924 110.235C99.1117 111.401 98.8005 112.745 98.9 114.091C98.9393 113.153 99.1856 112.234 99.641 111.413C100.414 110.022 101.814 108.972 103.38 108.685C104.35 108.508 105.337 108.615 106.311 108.736C107.245 108.852 108.186 108.974 109.107 109.174C110.529 109.482 111.938 109.955 113.132 110.791C113.41 110.985 113.671 111.206 113.89 111.464C114.109 111.723 114.279 112.024 114.345 112.357C114.441 112.844 114.302 113.355 114.059 113.788C113.817 114.221 113.485 114.6 113.132 114.95C112.847 115.233 112.542 115.507 112.24 115.774C113.619 115.507 115.016 115.129 116.163 114.326C116.648 113.987 117.087 113.58 117.376 113.063C117.664 112.546 117.786 111.921 117.645 111.346C117.55 110.958 117.338 110.601 117.073 110.302C116.808 110.003 116.491 109.756 116.164 109.527C114.719 108.516 113.03 107.867 111.28 107.657C110.159 107.451 109.027 107.277 107.896 107.135C107.01 107.024 106.106 106.934 105.217 106.984L105.215 106.984Z" fill="url(#paint22_radial_16_1189)"/>
</g>
</g>
<mask id="mask7_16_1189" style="mask-type:luminance" maskUnits="userSpaceOnUse" x="98" y="107" width="21" height="17">
<path d="M118.132 111.766C117.913 111.171 117.529 110.643 117.059 110.219C116.589 109.794 116.035 109.469 115.452 109.221C114.285 108.725 113.016 108.542 111.77 108.307L108.252 107.619C107.028 107.411 105.763 107.278 104.552 107.551C103.493 107.79 102.513 108.338 101.711 109.071C100.909 109.804 100.283 110.718 99.8328 111.712C99.0395 113.452 98.79 115.411 98.9414 117.318C99.0546 118.737 99.4129 120.199 100.348 121.274C101.102 122.141 102.173 122.683 103.276 123.009C105.176 123.571 107.247 123.541 109.129 122.925C112.26 121.867 114.967 119.831 116.852 117.116C117.466 116.227 117.99 115.258 118.228 114.205C118.409 113.396 118.415 112.545 118.132 111.771" fill="white"/>
</mask>
<g mask="url(#mask7_16_1189)">
<g filter="url(#filter30_f_16_1189)">
<path d="M105.215 106.984C104.921 107 104.629 107.034 104.339 107.086C102.469 107.418 100.757 108.6 99.7924 110.235C99.1117 111.401 98.8005 112.745 98.9 114.091C98.9393 113.153 99.1856 112.234 99.641 111.413C100.414 110.022 101.814 108.972 103.38 108.685C104.35 108.508 105.337 108.615 106.311 108.736C107.245 108.852 108.186 108.974 109.107 109.174C110.529 109.482 111.938 109.955 113.132 110.791C113.41 110.985 113.671 111.206 113.89 111.464C114.109 111.723 114.279 112.024 114.345 112.357C114.441 112.844 114.302 113.355 114.059 113.788C113.817 114.221 113.485 114.6 113.132 114.95C112.847 115.233 112.542 115.507 112.24 115.774C113.619 115.507 115.016 115.129 116.163 114.326C116.648 113.987 117.087 113.58 117.376 113.063C117.664 112.546 117.786 111.921 117.645 111.346C117.55 110.958 117.338 110.601 117.073 110.302C116.808 110.003 116.491 109.756 116.164 109.527C114.719 108.516 113.03 107.867 111.28 107.657C110.159 107.451 109.027 107.277 107.896 107.135C107.01 107.024 106.106 106.934 105.217 106.984L105.215 106.984Z" fill="url(#paint23_linear_16_1189)"/>
</g>
</g>
<path d="M43.9281 57.3871L34.8085 68.8046C32.9045 71.1651 30.9553 73.5439 29.7158 76.3118C28.6509 78.69 28.1475 81.2736 27.4173 83.7758C26.5884 86.6169 25.4632 89.3643 24.1999 92.0406C23.0332 94.5115 21.7479 96.9248 20.4599 99.3354C19.5232 101.089 18.571 102.881 18.246 104.843C17.9895 106.393 18.1382 107.993 18.5338 109.513C18.9293 111.034 19.5577 112.483 20.2788 113.882C23.3328 119.85 27.9152 124.995 33.3432 128.931C35.8061 130.717 38.4452 132.262 41.2125 133.526C42.7118 134.21 44.2919 134.821 45.9399 134.85C46.7644 134.864 47.5965 134.729 48.351 134.397C49.1055 134.066 49.7791 133.533 50.228 132.841C50.7794 131.991 50.9664 130.935 50.8559 129.928C50.7454 128.92 50.352 127.959 49.8249 127.093C48.5315 124.979 46.5025 123.45 44.5457 121.934C40.3206 118.66 36.2329 115.208 32.322 111.565C31.2172 110.536 30.1135 109.475 29.3418 108.178C28.5905 106.915 28.1842 105.476 27.9093 104.033C27.1548 100.072 27.3488 95.9041 28.6961 92.1047C29.2232 90.6184 29.9195 89.1989 30.592 87.7718C31.7561 85.2982 32.8593 82.7782 34.3914 80.5142C36.2981 77.6957 38.8466 75.3083 40.4003 72.2807C41.7121 69.7262 42.2434 66.8527 42.7511 64.0255L43.9281 57.3871Z" fill="#020204"/>
<mask id="mask8_16_1189" style="mask-type:luminance" maskUnits="userSpaceOnUse" x="18" y="57" width="34" height="78">
<path d="M43.692 57.4879C43.692 57.4879 40.9403 60.9073 39.4362 63.0102C37.9321 65.1131 36.3444 66.594 34.8085 68.8036C33.2726 71.0131 30.8394 73.8866 29.7158 76.3107C28.5921 78.7347 28.4655 81.1803 27.4173 83.7747C26.3691 86.369 25.4233 89.5098 24.1999 92.0395C22.9766 94.5692 21.306 97.2589 20.4599 99.3343C19.6138 101.41 18.4066 102.419 18.246 104.842C18.0854 107.265 17.935 109.324 20.2788 113.881C22.6225 118.437 29.5675 125.741 33.3432 128.93C37.1189 132.119 38.4036 132.824 41.2125 133.525C44.0213 134.226 48.6797 135.141 50.2286 132.84C51.7774 130.54 51.453 129.626 49.8244 127.092C48.1958 124.559 47.2241 124.235 44.5451 121.933C41.8662 119.632 34.5013 113.918 32.3214 111.564C30.1415 109.211 28.4913 109.726 29.3412 108.178C30.1911 106.63 28.1518 106.017 27.9088 104.032C27.497 100.667 28.4175 93.9543 28.6956 92.1042C28.9737 90.2541 29.3552 90.5284 30.5915 87.7713C31.8278 85.0142 32.814 83.1237 34.3909 80.5137C35.9677 77.9037 39.039 75.0555 40.3998 72.2801C41.7606 69.5047 42.2882 66.5029 42.7505 64.025C43.2129 61.547 43.692 57.4879 43.692 57.4879Z" fill="white"/>
</mask>
<g mask="url(#mask8_16_1189)">
<g opacity="0.95" filter="url(#filter31_f_16_1189)">
<path d="M35.2149 78.8603C33.9621 80.0145 32.8817 81.3426 32.0067 82.8041C30.5689 85.2077 29.7217 87.9066 28.6773 90.5052C27.8991 92.4399 26.9932 94.3817 26.8843 96.4635C26.8288 97.5327 26.9867 98.6008 27.0228 99.6711C27.0589 100.741 26.9592 101.854 26.43 102.788C25.9919 103.57 25.2627 104.184 24.4182 104.483C25.5658 104.869 26.5685 105.595 27.2933 106.565C27.8942 107.374 28.2785 108.319 28.8001 109.179C29.2243 109.879 29.7449 110.527 30.3862 111.036C31.0275 111.545 31.7928 111.909 32.6049 112.013C33.1637 112.081 33.7305 112.027 34.2667 111.856C34.8029 111.684 35.2958 111.399 35.7118 111.02C34.6743 101.3 35.6245 91.3729 38.4872 82.0264C38.6677 81.4363 38.8574 80.8419 38.9021 80.2265C38.9469 79.611 38.8321 78.9611 38.4581 78.4707C38.2587 78.2093 37.9903 78.0018 37.6874 77.8735C37.3846 77.7453 37.0483 77.6984 36.7228 77.7377C36.3973 77.7771 36.0815 77.9026 35.8174 78.0988C35.5533 78.295 35.3421 78.5607 35.21 78.8614L35.2149 78.8603Z" fill="#7C7C7C"/>
</g>
</g>
<mask id="mask9_16_1189" style="mask-type:luminance" maskUnits="userSpaceOnUse" x="0" y="109" width="52" height="51">
<path d="M21.8751 109.444C22.7374 109.087 23.7063 109.021 24.6236 109.191C25.5408 109.36 26.4074 109.756 27.1797 110.28C28.7231 111.329 29.8678 112.855 30.9645 114.365C33.4823 117.833 35.9063 121.372 38.1024 125.052C39.8841 128.037 41.5213 131.119 43.58 133.919C44.924 135.747 46.44 137.443 47.7905 139.266C49.1411 141.089 50.3385 143.069 50.9378 145.257C51.716 148.101 51.4148 151.235 50.061 153.854C49.1087 155.698 47.6488 157.278 45.8725 158.349C44.0963 159.42 42.0085 159.973 39.9358 159.896C36.6409 159.772 33.6305 158.125 30.5673 156.905C24.3266 154.419 17.547 153.639 11.114 151.703C9.13616 151.108 7.19283 150.404 5.20207 149.857C4.31824 149.614 3.41825 149.4 2.58293 149.021C1.74761 148.643 0.966175 148.078 0.501629 147.288C0.14271 146.677 -0.0092652 145.957 0.000435308 145.247C0.0101358 144.538 0.176123 143.838 0.417558 143.171C0.900428 141.838 1.68024 140.631 2.20676 139.314C3.06634 137.164 3.22101 134.794 3.10514 132.481C2.98927 130.168 2.61472 127.876 2.45574 125.567C2.38568 124.535 2.35874 123.49 2.55544 122.475C2.75215 121.461 3.18921 120.468 3.93399 119.751C4.62058 119.09 5.53188 118.698 6.46475 118.503C7.39762 118.307 8.35904 118.299 9.31239 118.32C10.2657 118.341 11.2202 118.393 12.1708 118.315C13.1215 118.237 14.0748 118.024 14.9031 117.551C15.6899 117.101 16.3334 116.433 16.8669 115.7C17.4005 114.968 17.8316 114.166 18.2735 113.375C18.7154 112.584 19.1724 111.795 19.7512 111.098C20.33 110.4 21.0392 109.792 21.8762 109.445" fill="white"/>
</mask>
<g mask="url(#mask9_16_1189)">
<path d="M21.8751 109.444C22.7374 109.087 23.7063 109.021 24.6236 109.191C25.5408 109.36 26.4074 109.756 27.1797 110.28C28.7231 111.329 29.8678 112.855 30.9645 114.365C33.4823 117.833 35.9063 121.372 38.1024 125.052C39.8841 128.037 41.5213 131.119 43.58 133.919C44.924 135.747 46.44 137.443 47.7905 139.266C49.1411 141.089 50.3385 143.069 50.9378 145.257C51.716 148.101 51.4148 151.235 50.061 153.854C49.1087 155.698 47.6488 157.278 45.8725 158.349C44.0963 159.42 42.0085 159.973 39.9358 159.896C36.6409 159.772 33.6305 158.125 30.5673 156.905C24.3266 154.419 17.547 153.639 11.114 151.703C9.13616 151.108 7.19283 150.404 5.20207 149.857C4.31824 149.614 3.41825 149.4 2.58293 149.021C1.74761 148.643 0.966175 148.078 0.501629 147.288C0.14271 146.677 -0.0092652 145.957 0.000435308 145.247C0.0101358 144.538 0.176123 143.838 0.417558 143.171C0.900428 141.838 1.68024 140.631 2.20676 139.314C3.06634 137.164 3.22101 134.794 3.10514 132.481C2.98927 130.168 2.61472 127.876 2.45574 125.567C2.38568 124.535 2.35874 123.49 2.55544 122.475C2.75215 121.461 3.18921 120.468 3.93399 119.751C4.62058 119.09 5.53188 118.698 6.46475 118.503C7.39762 118.307 8.35904 118.299 9.31239 118.32C10.2657 118.341 11.2202 118.393 12.1708 118.315C13.1215 118.237 14.0748 118.024 14.9031 117.551C15.6899 117.101 16.3334 116.433 16.8669 115.7C17.4005 114.968 17.8316 114.166 18.2735 113.375C18.7154 112.584 19.1724 111.795 19.7512 111.098C20.33 110.4 21.0392 109.792 21.8762 109.445L21.8751 109.444Z" fill="url(#paint24_linear_16_1189)"/>
<g filter="url(#filter32_f_16_1189)">
<path d="M23.2349 110.931C24.019 110.615 24.9023 110.581 25.7263 110.767C26.5503 110.954 27.3161 111.36 27.9833 111.871C29.3187 112.902 30.2467 114.357 31.1381 115.789C33.2776 119.255 35.3686 122.759 37.3443 126.334C38.8409 129.024 40.2679 131.773 42.1067 134.245C43.3268 135.884 44.7188 137.387 45.9643 139.007C47.2097 140.628 48.3193 142.393 48.8706 144.36C49.5799 146.896 49.2926 149.696 48.065 152.031C47.1761 153.714 45.8349 155.117 44.1923 156.08C42.5456 157.037 40.6591 157.502 38.7562 157.42C35.7394 157.281 32.9844 155.775 30.1443 154.753C24.6997 152.777 18.7985 152.512 13.2137 150.97C11.2116 150.426 9.25968 149.702 7.2479 149.194C6.35761 148.97 5.45169 148.786 4.60613 148.429C3.76057 148.072 2.96405 147.518 2.50543 146.723C2.16429 146.132 2.02795 145.437 2.04897 144.754C2.06998 144.072 2.24297 143.407 2.4801 142.764C2.9662 141.488 3.73039 140.338 4.2208 139.058C4.96451 137.132 5.05612 135.014 4.91816 132.955C4.7802 130.895 4.42236 128.854 4.29679 126.793C4.24074 125.871 4.23212 124.939 4.41858 124.036C4.60505 123.132 4.99846 122.257 5.6554 121.604C6.36677 120.898 7.3476 120.513 8.33759 120.362C9.32758 120.211 10.3348 120.277 11.3313 120.366C12.3277 120.455 13.328 120.567 14.3277 120.507C15.3273 120.447 16.341 120.204 17.1677 119.641C17.9206 119.132 18.4859 118.389 18.916 117.594C19.3461 116.8 19.6532 115.948 19.9809 115.106C20.3086 114.264 20.6637 113.424 21.1784 112.681C21.693 111.939 22.3834 111.277 23.2295 110.938" fill="#D99A03"/>
</g>
<g filter="url(#filter33_f_16_1189)">
<path d="M22.5088 108.972C23.2686 108.596 24.1632 108.518 24.9964 108.688C25.8296 108.858 26.6013 109.265 27.2577 109.798C28.57 110.856 29.4026 112.378 30.1786 113.865C31.9598 117.281 33.6185 120.771 35.75 123.988C37.2967 126.317 39.0805 128.496 40.6444 130.818C42.7656 133.967 44.4901 137.431 45.2015 141.142C45.6801 143.638 45.665 146.329 44.4621 148.582C43.6699 150.062 42.3873 151.281 40.8713 152.035C39.3553 152.79 37.6146 153.103 35.9186 152.953C33.2489 152.718 30.8237 151.405 28.3107 150.489C23.8512 148.865 19.0317 148.477 14.4423 147.25C12.5065 146.733 10.6159 146.068 8.64889 145.663C7.78339 145.482 6.90065 145.35 6.07449 145.038C5.24833 144.726 4.46528 144.209 4.04276 143.445C3.74636 142.907 3.64558 142.278 3.69031 141.669C3.73504 141.059 3.91666 140.465 4.15648 139.9C4.63503 138.77 5.34209 137.735 5.71934 136.568C6.26526 134.852 6.04107 132.992 5.63095 131.239C5.22084 129.487 4.63018 127.767 4.44857 125.979C4.36773 125.182 4.36935 124.37 4.55096 123.589C4.73258 122.808 5.10443 122.059 5.68808 121.499C6.43879 120.778 7.49022 120.419 8.53518 120.318C9.58014 120.218 10.6326 120.355 11.6717 120.504C12.7107 120.652 13.7562 120.821 14.8055 120.768C15.8548 120.715 16.9224 120.445 17.7442 119.803C18.5569 119.168 19.0678 118.222 19.361 117.243C19.6541 116.265 19.749 115.242 19.8691 114.229C19.9893 113.216 20.1386 112.193 20.532 111.249C20.9254 110.305 21.5883 109.435 22.5152 108.975L22.5088 108.972Z" fill="#F5BD0C"/>
</g>
<g filter="url(#filter34_f_16_1189)">
<path d="M32.0229 117.501C33.4274 120.041 34.2842 122.956 35.6768 125.517C36.9584 127.873 38.4167 130.299 39.7187 132.472C40.298 133.44 41.6496 134.927 43.0169 137.235C44.2553 139.326 45.5056 142.245 46.2056 143.225C45.8036 142.077 44.9769 138.997 43.9907 136.8C43.0745 134.747 41.9967 133.576 41.3354 132.472C40.0334 130.299 38.6317 128.346 37.2936 126.275C35.4478 123.417 34.0407 120.22 32.0229 117.501V117.501Z" fill="url(#paint25_linear_16_1189)"/>
</g>
</g>
<defs>
<filter id="filter0_f_16_1189" x="47.1677" y="43.3759" width="36.2168" height="22.1257" filterUnits="userSpaceOnUse" color-interpolation-filters="sRGB">
<feFlood flood-opacity="0" result="BackgroundImageFix"/>
<feBlend mode="normal" in="SourceGraphic" in2="BackgroundImageFix" result="shape"/>
<feGaussianBlur stdDeviation="0.436168" result="effect1_foregroundBlur_16_1189"/>
</filter>
<filter id="filter1_f_16_1189" x="47.3575" y="42.3613" width="33.7572" height="15.7576" filterUnits="userSpaceOnUse" color-interpolation-filters="sRGB">
<feFlood flood-opacity="0" result="BackgroundImageFix"/>
<feBlend mode="normal" in="SourceGraphic" in2="BackgroundImageFix" result="shape"/>
<feGaussianBlur stdDeviation="0.191623" result="effect1_foregroundBlur_16_1189"/>
</filter>
<filter id="filter2_f_16_1189" x="47.2084" y="33.7331" width="33.6589" height="17.5556" filterUnits="userSpaceOnUse" color-interpolation-filters="sRGB">
<feFlood flood-opacity="0" result="BackgroundImageFix"/>
<feBlend mode="normal" in="SourceGraphic" in2="BackgroundImageFix" result="shape"/>
<feGaussianBlur stdDeviation="0.291564" result="effect1_foregroundBlur_16_1189"/>
</filter>
<filter id="filter3_f_16_1189" x="73.2167" y="6.00281" width="10.5954" height="10.1317" filterUnits="userSpaceOnUse" color-interpolation-filters="sRGB">
<feFlood flood-opacity="0" result="BackgroundImageFix"/>
<feBlend mode="normal" in="SourceGraphic" in2="BackgroundImageFix" result="shape"/>
<feGaussianBlur stdDeviation="0.429496" result="effect1_foregroundBlur_16_1189"/>
</filter>
<filter id="filter4_f_16_1189" x="72.6365" y="31.9324" width="2.25195" height="1.75301" filterUnits="userSpaceOnUse" color-interpolation-filters="sRGB">
<feFlood flood-opacity="0" result="BackgroundImageFix"/>
<feBlend mode="normal" in="SourceGraphic" in2="BackgroundImageFix" result="shape"/>
<feGaussianBlur stdDeviation="0.0533428" result="effect1_foregroundBlur_16_1189"/>
</filter>
<filter id="filter5_f_16_1189" x="72.5364" y="29.4858" width="4.20499" height="4.1503" filterUnits="userSpaceOnUse" color-interpolation-filters="sRGB">
<feFlood flood-opacity="0" result="BackgroundImageFix"/>
<feBlend mode="normal" in="SourceGraphic" in2="BackgroundImageFix" result="shape"/>
<feGaussianBlur stdDeviation="0.111184" result="effect1_foregroundBlur_16_1189"/>
</filter>
<filter id="filter6_f_16_1189" x="73.8599" y="19.4378" width="8.39538" height="7.75681" filterUnits="userSpaceOnUse" color-interpolation-filters="sRGB">
<feFlood flood-opacity="0" result="BackgroundImageFix"/>
<feBlend mode="normal" in="SourceGraphic" in2="BackgroundImageFix" result="shape"/>
<feGaussianBlur stdDeviation="0.0317057" result="effect1_foregroundBlur_16_1189"/>
</filter>
<filter id="filter7_f_16_1189" x="51.5994" y="20.4964" width="7.84615" height="6.90981" filterUnits="userSpaceOnUse" color-interpolation-filters="sRGB">
<feFlood flood-opacity="0" result="BackgroundImageFix"/>
<feBlend mode="normal" in="SourceGraphic" in2="BackgroundImageFix" result="shape"/>
<feGaussianBlur stdDeviation="0.0289208" result="effect1_foregroundBlur_16_1189"/>
</filter>
<filter id="filter8_f_16_1189" x="52.3715" y="29.9992" width="3.26772" height="4.97822" filterUnits="userSpaceOnUse" color-interpolation-filters="sRGB">
<feFlood flood-opacity="0" result="BackgroundImageFix"/>
<feBlend mode="normal" in="SourceGraphic" in2="BackgroundImageFix" result="shape"/>
<feGaussianBlur stdDeviation="0.109899" result="effect1_foregroundBlur_16_1189"/>
</filter>
<filter id="filter9_f_16_1189" x="55.338" y="47.8913" width="8.25279" height="6.03599" filterUnits="userSpaceOnUse" color-interpolation-filters="sRGB">
<feFlood flood-opacity="0" result="BackgroundImageFix"/>
<feBlend mode="normal" in="SourceGraphic" in2="BackgroundImageFix" result="shape"/>
<feGaussianBlur stdDeviation="0.192591" result="effect1_foregroundBlur_16_1189"/>
</filter>
<filter id="filter10_f_16_1189" x="48.7065" y="39.2787" width="29.1588" height="13.003" filterUnits="userSpaceOnUse" color-interpolation-filters="sRGB">
<feFlood flood-opacity="0" result="BackgroundImageFix"/>
<feBlend mode="normal" in="SourceGraphic" in2="BackgroundImageFix" result="shape"/>
<feGaussianBlur stdDeviation="0.162385" result="effect1_foregroundBlur_16_1189"/>
</filter>
<filter id="filter11_f_16_1189" x="61.0718" y="39.7681" width="7.54783" height="9.1515" filterUnits="userSpaceOnUse" color-interpolation-filters="sRGB">
<feFlood flood-opacity="0" result="BackgroundImageFix"/>
<feBlend mode="normal" in="SourceGraphic" in2="BackgroundImageFix" result="shape"/>
<feGaussianBlur stdDeviation="0.18188" result="effect1_foregroundBlur_16_1189"/>
</filter>
<filter id="filter12_f_16_1189" x="63.6819" y="36.5892" width="3.14699" height="1.69637" filterUnits="userSpaceOnUse" color-interpolation-filters="sRGB">
<feFlood flood-opacity="0" result="BackgroundImageFix"/>
<feBlend mode="normal" in="SourceGraphic" in2="BackgroundImageFix" result="shape"/>
<feGaussianBlur stdDeviation="0.0235651" result="effect1_foregroundBlur_16_1189"/>
</filter>
<filter id="filter13_f_16_1189" x="56.469" y="36.8664" width="1.31985" height="1.44567" filterUnits="userSpaceOnUse" color-interpolation-filters="sRGB">
<feFlood flood-opacity="0" result="BackgroundImageFix"/>
<feBlend mode="normal" in="SourceGraphic" in2="BackgroundImageFix" result="shape"/>
<feGaussianBlur stdDeviation="0.0235651" result="effect1_foregroundBlur_16_1189"/>
</filter>
<filter id="filter14_f_16_1189" x="77.1935" y="41.1914" width="3.40254" height="4.10197" filterUnits="userSpaceOnUse" color-interpolation-filters="sRGB">
<feFlood flood-opacity="0" result="BackgroundImageFix"/>
<feBlend mode="normal" in="SourceGraphic" in2="BackgroundImageFix" result="shape"/>
<feGaussianBlur stdDeviation="0.073168" result="effect1_foregroundBlur_16_1189"/>
</filter>
<filter id="filter15_f_16_1189" x="93.0762" y="73.8287" width="16.3179" height="44.838" filterUnits="userSpaceOnUse" color-interpolation-filters="sRGB">
<feFlood flood-opacity="0" result="BackgroundImageFix"/>
<feBlend mode="normal" in="SourceGraphic" in2="BackgroundImageFix" result="shape"/>
<feGaussianBlur stdDeviation="0.292242" result="effect1_foregroundBlur_16_1189"/>
</filter>
<filter id="filter16_f_16_1189" x="35.4174" y="66.2263" width="19.8347" height="18.5961" filterUnits="userSpaceOnUse" color-interpolation-filters="sRGB">
<feFlood flood-opacity="0" result="BackgroundImageFix"/>
<feBlend mode="normal" in="SourceGraphic" in2="BackgroundImageFix" result="shape"/>
<feGaussianBlur stdDeviation="0.147995" result="effect1_foregroundBlur_16_1189"/>
</filter>
<filter id="filter17_f_16_1189" x="64.1062" y="64.6195" width="29.9595" height="21.0682" filterUnits="userSpaceOnUse" color-interpolation-filters="sRGB">
<feFlood flood-opacity="0" result="BackgroundImageFix"/>
<feBlend mode="normal" in="SourceGraphic" in2="BackgroundImageFix" result="shape"/>
<feGaussianBlur stdDeviation="0.243791" result="effect1_foregroundBlur_16_1189"/>
</filter>
<filter id="filter18_f_16_1189" x="52.7569" y="67.0774" width="12.3636" height="13.1712" filterUnits="userSpaceOnUse" color-interpolation-filters="sRGB">
<feFlood flood-opacity="0" result="BackgroundImageFix"/>
<feBlend mode="normal" in="SourceGraphic" in2="BackgroundImageFix" result="shape"/>
<feGaussianBlur stdDeviation="0.168169" result="effect1_foregroundBlur_16_1189"/>
</filter>
<filter id="filter19_f_16_1189" x="53.0714" y="85.1443" width="3.52816" height="33.5908" filterUnits="userSpaceOnUse" color-interpolation-filters="sRGB">
<feFlood flood-opacity="0" result="BackgroundImageFix"/>
<feBlend mode="normal" in="SourceGraphic" in2="BackgroundImageFix" result="shape"/>
<feGaussianBlur stdDeviation="0.309774" result="effect1_foregroundBlur_16_1189"/>
</filter>
<filter id="filter20_f_16_1189" x="85.2858" y="47.3283" width="7.33458" height="8.07957" filterUnits="userSpaceOnUse" color-interpolation-filters="sRGB">
<feFlood flood-opacity="0" result="BackgroundImageFix"/>
<feBlend mode="normal" in="SourceGraphic" in2="BackgroundImageFix" result="shape"/>
<feGaussianBlur stdDeviation="0.193019" result="effect1_foregroundBlur_16_1189"/>
</filter>
<filter id="filter21_f_16_1189" x="84.0429" y="116.9" width="40.4045" height="43.8067" filterUnits="userSpaceOnUse" color-interpolation-filters="sRGB">
<feFlood flood-opacity="0" result="BackgroundImageFix"/>
<feBlend mode="normal" in="SourceGraphic" in2="BackgroundImageFix" result="shape"/>
<feGaussianBlur stdDeviation="0.479548" result="effect1_foregroundBlur_16_1189"/>
</filter>
<filter id="filter22_f_16_1189" x="87.9964" y="110.777" width="46.7177" height="47.3173" filterUnits="userSpaceOnUse" color-interpolation-filters="sRGB">
<feFlood flood-opacity="0" result="BackgroundImageFix"/>
<feBlend mode="normal" in="SourceGraphic" in2="BackgroundImageFix" result="shape"/>
<feGaussianBlur stdDeviation="1.0238" result="effect1_foregroundBlur_16_1189"/>
</filter>
<filter id="filter23_f_16_1189" x="90.1766" y="107.963" width="43.9022" height="43.6978" filterUnits="userSpaceOnUse" color-interpolation-filters="sRGB">
<feFlood flood-opacity="0" result="BackgroundImageFix"/>
<feBlend mode="normal" in="SourceGraphic" in2="BackgroundImageFix" result="shape"/>
<feGaussianBlur stdDeviation="0.806721" result="effect1_foregroundBlur_16_1189"/>
</filter>
<filter id="filter24_f_16_1189" x="91.1073" y="113.173" width="30.0667" height="5.20807" filterUnits="userSpaceOnUse" color-interpolation-filters="sRGB">
<feFlood flood-opacity="0" result="BackgroundImageFix"/>
<feBlend mode="normal" in="SourceGraphic" in2="BackgroundImageFix" result="shape"/>
<feGaussianBlur stdDeviation="0.102615" result="effect1_foregroundBlur_16_1189"/>
</filter>
<filter id="filter25_f_16_1189" x="97.3929" y="81.0842" width="7.39533" height="7.51154" filterUnits="userSpaceOnUse" color-interpolation-filters="sRGB">
<feFlood flood-opacity="0" result="BackgroundImageFix"/>
<feBlend mode="normal" in="SourceGraphic" in2="BackgroundImageFix" result="shape"/>
<feGaussianBlur stdDeviation="0.491044" result="effect1_foregroundBlur_16_1189"/>
</filter>
<filter id="filter26_f_16_1189" x="41.4451" y="59.9401" width="2.80168" height="2.87181" filterUnits="userSpaceOnUse" color-interpolation-filters="sRGB">
<feFlood flood-opacity="0" result="BackgroundImageFix"/>
<feBlend mode="normal" in="SourceGraphic" in2="BackgroundImageFix" result="shape"/>
<feGaussianBlur stdDeviation="0.137066" result="effect1_foregroundBlur_16_1189"/>
</filter>
<filter id="filter27_f_16_1189" x="96.3181" y="113.675" width="20.7867" height="18.1498" filterUnits="userSpaceOnUse" color-interpolation-filters="sRGB">
<feFlood flood-opacity="0" result="BackgroundImageFix"/>
<feBlend mode="normal" in="SourceGraphic" in2="BackgroundImageFix" result="shape"/>
<feGaussianBlur stdDeviation="0.609264" result="effect1_foregroundBlur_16_1189"/>
</filter>
<filter id="filter28_f_16_1189" x="97.0641" y="114.471" width="19.2946" height="12.3041" filterUnits="userSpaceOnUse" color-interpolation-filters="sRGB">
<feFlood flood-opacity="0" result="BackgroundImageFix"/>
<feBlend mode="normal" in="SourceGraphic" in2="BackgroundImageFix" result="shape"/>
<feGaussianBlur stdDeviation="0.236245" result="effect1_foregroundBlur_16_1189"/>
</filter>
<filter id="filter29_f_16_1189" x="98.4427" y="106.53" width="19.7006" height="9.68339" filterUnits="userSpaceOnUse" color-interpolation-filters="sRGB">
<feFlood flood-opacity="0" result="BackgroundImageFix"/>
<feBlend mode="normal" in="SourceGraphic" in2="BackgroundImageFix" result="shape"/>
<feGaussianBlur stdDeviation="0.219584" result="effect1_foregroundBlur_16_1189"/>
</filter>
<filter id="filter30_f_16_1189" x="98.4427" y="106.53" width="19.7006" height="9.68339" filterUnits="userSpaceOnUse" color-interpolation-filters="sRGB">
<feFlood flood-opacity="0" result="BackgroundImageFix"/>
<feBlend mode="normal" in="SourceGraphic" in2="BackgroundImageFix" result="shape"/>
<feGaussianBlur stdDeviation="0.219584" result="effect1_foregroundBlur_16_1189"/>
</filter>
<filter id="filter31_f_16_1189" x="23.9332" y="77.2392" width="15.4632" height="35.2871" filterUnits="userSpaceOnUse" color-interpolation-filters="sRGB">
<feFlood flood-opacity="0" result="BackgroundImageFix"/>
<feBlend mode="normal" in="SourceGraphic" in2="BackgroundImageFix" result="shape"/>
<feGaussianBlur stdDeviation="0.242506" result="effect1_foregroundBlur_16_1189"/>
</filter>
<filter id="filter32_f_16_1189" x="0.365614" y="108.972" width="50.5676" height="50.1385" filterUnits="userSpaceOnUse" color-interpolation-filters="sRGB">
<feFlood flood-opacity="0" result="BackgroundImageFix"/>
<feBlend mode="normal" in="SourceGraphic" in2="BackgroundImageFix" result="shape"/>
<feGaussianBlur stdDeviation="0.840631" result="effect1_foregroundBlur_16_1189"/>
</filter>
<filter id="filter33_f_16_1189" x="2.64544" y="107.568" width="43.8844" height="46.4562" filterUnits="userSpaceOnUse" color-interpolation-filters="sRGB">
<feFlood flood-opacity="0" result="BackgroundImageFix"/>
<feBlend mode="normal" in="SourceGraphic" in2="BackgroundImageFix" result="shape"/>
<feGaussianBlur stdDeviation="0.517366" result="effect1_foregroundBlur_16_1189"/>
</filter>
<filter id="filter34_f_16_1189" x="31.8644" y="117.342" width="14.4997" height="26.0418" filterUnits="userSpaceOnUse" color-interpolation-filters="sRGB">
<feFlood flood-opacity="0" result="BackgroundImageFix"/>
<feBlend mode="normal" in="SourceGraphic" in2="BackgroundImageFix" result="shape"/>
<feGaussianBlur stdDeviation="0.0792644" result="effect1_foregroundBlur_16_1189"/>
</filter>
<radialGradient id="paint0_radial_16_1189" cx="0" cy="0" r="1" gradientUnits="userSpaceOnUse" gradientTransform="translate(2066.79 3035.16) rotate(-2.41003) scale(134.126 328.292)">
<stop stop-color="#FEFEFC"/>
<stop offset="0.757" stop-color="#FEFEFC"/>
<stop offset="1" stop-color="#D4D4D4"/>
</radialGradient>
<radialGradient id="paint1_radial_16_1189" cx="0" cy="0" r="1" gradientUnits="userSpaceOnUse" gradientTransform="translate(3721.81 3178.86) rotate(-1.81001) scale(240.132 347.013)">
<stop stop-color="#FEFEFC"/>
<stop offset="0.757" stop-color="#FEFEFC"/>
<stop offset="1" stop-color="#D4D4D4"/>
</radialGradient>
<radialGradient id="paint2_radial_16_1189" cx="0" cy="0" r="1" gradientUnits="userSpaceOnUse" gradientTransform="translate(3971.42 -1050.05) rotate(-36.0085) scale(220.001 145.945)">
<stop stop-color="#020204"/>
<stop offset="0.734" stop-color="#020204"/>
<stop offset="1" stop-color="#5C5C5C"/>
</radialGradient>
<linearGradient id="paint3_linear_16_1189" x1="1212.13" y1="521.697" x2="1236.96" y2="551.532" gradientUnits="userSpaceOnUse">
<stop stop-color="#949494" stop-opacity="0.392"/>
<stop offset="0.5" stop-color="#949494"/>
<stop offset="1" stop-color="#949494" stop-opacity="0.392"/>
</linearGradient>
<linearGradient id="paint4_linear_16_1189" x1="2349.59" y1="2252.51" x2="2798.46" y2="2621.22" gradientUnits="userSpaceOnUse">
<stop stop-color="#747474"/>
<stop offset="0.125" stop-color="#8C8C8C"/>
<stop offset="0.25" stop-color="#A4A4A4"/>
<stop offset="0.5" stop-color="#D4D4D4"/>
<stop offset="0.619" stop-color="#D4D4D4"/>
<stop offset="1" stop-color="#7C7C7C"/>
</linearGradient>
<linearGradient id="paint5_linear_16_1189" x1="202.169" y1="824.938" x2="310.903" y2="936.182" gradientUnits="userSpaceOnUse">
<stop stop-color="#646464" stop-opacity="0"/>
<stop offset="0.306" stop-color="#646464" stop-opacity="0.583"/>
<stop offset="0.47" stop-color="#646464"/>
<stop offset="0.728" stop-color="#646464" stop-opacity="0.257"/>
<stop offset="1" stop-color="#646464" stop-opacity="0"/>
</linearGradient>
<linearGradient id="paint6_linear_16_1189" x1="-147.574" y1="745.257" x2="-56.8477" y2="844.67" gradientUnits="userSpaceOnUse">
<stop stop-color="#646464" stop-opacity="0"/>
<stop offset="0.306" stop-color="#646464" stop-opacity="0.583"/>
<stop offset="0.47" stop-color="#646464"/>
<stop offset="0.728" stop-color="#646464" stop-opacity="0.257"/>
<stop offset="1" stop-color="#646464" stop-opacity="0"/>
</linearGradient>
<linearGradient id="paint7_linear_16_1189" x1="516.518" y1="629.603" x2="547.409" y2="664.021" gradientUnits="userSpaceOnUse">
<stop stop-color="#757574" stop-opacity="0"/>
<stop offset="0.263" stop-color="#757574"/>
<stop offset="0.5" stop-color="#757574"/>
<stop offset="1" stop-color="#757574" stop-opacity="0"/>
</linearGradient>
<radialGradient id="paint8_radial_16_1189" cx="0" cy="0" r="1" gradientUnits="userSpaceOnUse" gradientTransform="translate(9859.28 -1595.03) rotate(-22.428) scale(1036.55 360.117)">
<stop stop-color="#D2940A"/>
<stop offset="0.751" stop-color="#D89C08"/>
<stop offset="0.866" stop-color="#B67E07"/>
<stop offset="1" stop-color="#946106"/>
</radialGradient>
<linearGradient id="paint9_linear_16_1189" x1="1570.73" y1="2629.14" x2="3406.12" y2="2600.65" gradientUnits="userSpaceOnUse">
<stop stop-color="#AD780A"/>
<stop offset="0.12" stop-color="#D89E08"/>
<stop offset="0.255" stop-color="#EDB80B"/>
<stop offset="0.392" stop-color="#EBC80D"/>
<stop offset="0.527" stop-color="#F5D838"/>
<stop offset="0.769" stop-color="#F6D811"/>
<stop offset="1" stop-color="#F5CD31"/>
</linearGradient>
<radialGradient id="paint10_radial_16_1189" cx="0" cy="0" r="1" gradientUnits="userSpaceOnUse" gradientTransform="translate(300.831 174.433) scale(9.85992 3.01858)">
<stop stop-color="#3A2903"/>
<stop offset="0.555" stop-color="#735208"/>
<stop offset="1" stop-color="#AC8C04"/>
</radialGradient>
<radialGradient id="paint11_radial_16_1189" cx="0" cy="0" r="1" gradientUnits="userSpaceOnUse" gradientTransform="translate(133.885 251.085) scale(1.88136 2.23026)">
<stop stop-color="#3A2903"/>
<stop offset="0.555" stop-color="#735208"/>
<stop offset="1" stop-color="#AC8C04"/>
</radialGradient>
<linearGradient id="paint12_linear_16_1189" x1="759.003" y1="639.466" x2="760.956" y2="649.599" gradientUnits="userSpaceOnUse">
<stop stop-color="#F5CE2D"/>
<stop offset="1" stop-color="#D79B08"/>
</linearGradient>
<radialGradient id="paint13_radial_16_1189" cx="0" cy="0" r="1" gradientUnits="userSpaceOnUse" gradientTransform="translate(2130.16 107.152) rotate(-9.34942) scale(273.538 117.33)">
<stop stop-color="#C8C8C8"/>
<stop offset="1" stop-color="#797978"/>
</radialGradient>
<radialGradient id="paint14_radial_16_1189" cx="0" cy="0" r="1" gradientUnits="userSpaceOnUse" gradientTransform="translate(-4303.59 3098.89) rotate(180) scale(368.131 376.451)">
<stop/>
<stop offset="1" stop-opacity="0.25"/>
</radialGradient>
<radialGradient id="paint15_radial_16_1189" cx="0" cy="0" r="1" gradientUnits="userSpaceOnUse" gradientTransform="translate(8956.2 3688.54) scale(793.913 420.127)">
<stop/>
<stop offset="1" stop-opacity="0.25"/>
</radialGradient>
<radialGradient id="paint16_radial_16_1189" cx="0" cy="0" r="1" gradientUnits="userSpaceOnUse" gradientTransform="translate(3118.77 3070.48) scale(126.786 144.932)">
<stop/>
<stop offset="1" stop-opacity="0.25"/>
</radialGradient>
<linearGradient id="paint17_linear_16_1189" x1="1173.63" y1="13685.6" x2="1341.59" y2="14837.4" gradientUnits="userSpaceOnUse">
<stop/>
<stop offset="1" stop-opacity="0"/>
</linearGradient>
<linearGradient id="paint18_linear_16_1189" x1="20690" y1="17972.1" x2="23032.8" y2="14289.3" gradientUnits="userSpaceOnUse">
<stop stop-color="#3E2A06"/>
<stop offset="1" stop-color="#AD780A"/>
</linearGradient>
<linearGradient id="paint19_linear_16_1189" x1="1430.7" y1="1502.72" x2="1429.59" y2="1564.51" gradientUnits="userSpaceOnUse">
<stop stop-color="#F3CD0C"/>
<stop offset="1" stop-color="#F3CD0C" stop-opacity="0"/>
</linearGradient>
<radialGradient id="paint20_radial_16_1189" cx="0" cy="0" r="1" gradientUnits="userSpaceOnUse" gradientTransform="translate(6846.57 8934.97) rotate(15) scale(418.655 376.31)">
<stop stop-color="#110800"/>
<stop offset="0.591" stop-color="#A65A00" stop-opacity="0.8"/>
<stop offset="1" stop-color="#FF921E" stop-opacity="0"/>
</radialGradient>
<radialGradient id="paint21_radial_16_1189" cx="0" cy="0" r="1" gradientUnits="userSpaceOnUse" gradientTransform="translate(6846.57 6491.19) rotate(10.9628) scale(411.907 276.501)">
<stop stop-color="#110800"/>
<stop offset="0.591" stop-color="#A65A00" stop-opacity="0.8"/>
<stop offset="1" stop-color="#FF921E" stop-opacity="0"/>
</radialGradient>
<radialGradient id="paint22_radial_16_1189" cx="0" cy="0" r="1" gradientUnits="userSpaceOnUse" gradientTransform="translate(2542.01 1600.48) rotate(23.5217) scale(151.882 32.8365)">
<stop stop-color="#7C7C7C"/>
<stop offset="1" stop-color="#7C7C7C" stop-opacity="0.33"/>
</radialGradient>
<linearGradient id="paint23_linear_16_1189" x1="6846.6" y1="2566.76" x2="6902.72" y2="2561.77" gradientUnits="userSpaceOnUse">
<stop stop-color="#7C7C7C"/>
<stop offset="1" stop-color="#7C7C7C" stop-opacity="0.33"/>
</linearGradient>
<linearGradient id="paint24_linear_16_1189" x1="6324.14" y1="15427.7" x2="8736.2" y2="19519.1" gradientUnits="userSpaceOnUse">
<stop stop-color="#B98309"/>
<stop offset="1" stop-color="#382605"/>
</linearGradient>
<linearGradient id="paint25_linear_16_1189" x1="2457.83" y1="8406.59" x2="2923.99" y2="8890.38" gradientUnits="userSpaceOnUse">
<stop stop-color="#EBC40C"/>
<stop offset="1" stop-color="#EBC40C" stop-opacity="0"/>
</linearGradient>
</defs>
</svg>
