<svg width="192" height="100" viewBox="0 0 192 100" fill="none" xmlns="http://www.w3.org/2000/svg">
<path d="M0 90.2755H6.32525V65.3157L16.1173 87.0826C17.2723 89.7066 18.8548 90.6494 21.956 90.6494C25.0572 90.6494 26.5779 89.7169 27.7347 87.0826L37.5277 65.3157V90.2848H43.8539V65.3569C43.8539 62.925 42.8789 61.7489 40.8727 61.1417C36.0681 59.6422 32.844 60.9392 31.3853 64.1817L21.776 85.6638L12.4686 64.1724C11.0699 60.9299 7.78586 59.6329 2.98122 61.1323C0.973115 61.7405 0 62.9166 0 65.3475V90.2755ZM49.1114 69.9527H55.4348V83.7099C55.3757 84.4577 55.6748 86.212 59.1397 86.2654C60.9078 86.2936 72.784 86.2654 72.8946 86.2654V69.8842H79.232C79.2601 69.8842 79.2254 92.22 79.2264 92.3156C79.2611 97.8241 72.3883 99.0209 69.2215 99.1136H49.2492V94.859L69.2571 94.8581C73.3277 94.427 72.8477 92.4056 72.8477 91.7243V90.0655H59.4041C53.1492 90.0093 49.1667 87.2794 49.117 84.14C49.1123 83.8589 49.252 70.0876 49.1133 69.9517L49.1114 69.9527Z" fill="#00618A"/>
<path d="M84.1079 90.2755H102.293C104.421 90.2755 106.49 89.8303 108.134 89.0591C110.871 87.8033 112.209 86.1005 112.209 83.871V79.2509C112.209 77.4263 110.689 75.7245 107.709 74.5896C106.128 73.9805 104.181 73.6572 102.296 73.6572H94.6322C92.0785 73.6572 90.8616 72.8868 90.5578 71.185C90.4969 70.9826 90.4969 70.8101 90.4969 70.6171V67.7401C90.4969 67.5779 90.4969 67.4149 90.5578 67.2124C90.8616 65.9154 91.531 65.55 93.7809 65.3382C93.9637 65.3382 94.2066 65.2969 94.3903 65.2969H112.454V61.0826H94.6941C92.1394 61.0826 90.8016 61.2447 89.5847 61.6093C85.8104 62.7854 84.1679 64.6597 84.1679 67.9022V71.5908C84.1679 74.4284 87.3929 76.8603 92.8041 77.4273C93.4134 77.4676 94.0209 77.5079 94.6284 77.5079H101.197C101.441 77.5079 101.685 77.5079 101.867 77.5491C103.873 77.7112 104.726 78.0758 105.334 78.8049C105.709 79.1797 105.821 79.5358 105.821 79.9294V83.618C105.821 84.0641 105.517 84.632 104.909 85.1174C104.361 85.6048 103.449 85.9281 102.232 86.0096C101.989 86.0096 101.807 86.0499 101.564 86.0499H84.1079V90.2652V90.2755ZM151.667 82.9395C151.667 87.2766 154.89 89.7085 161.398 90.1949C162.005 90.2418 162.614 90.2687 163.223 90.2755H179.706V86.0602H163.101C159.391 86.0602 157.992 85.1277 157.992 82.8983V61.091H151.666V82.9377L151.667 82.9395ZM116.244 83.1588V68.1318C116.244 64.3139 118.925 61.9982 124.228 61.2672C124.793 61.1865 125.364 61.1458 125.935 61.1454H137.941C138.533 61.1458 139.124 61.1865 139.71 61.2672C145.012 61.9982 147.693 64.3129 147.693 68.1318V83.1588C147.693 86.2561 146.554 87.9139 143.929 88.9944L150.16 94.6172H142.815L137.775 90.0684L132.7 90.3898H125.935C124.777 90.3898 123.558 90.2267 122.217 89.8612C118.186 88.7648 116.244 86.6525 116.244 83.1588ZM123.072 82.784C123.072 82.9873 123.133 83.1897 123.194 83.4343C123.569 85.1812 125.205 86.1558 127.694 86.1558H133.441L128.162 81.3923H135.507L140.1 85.5467C140.949 85.095 141.507 84.4033 141.694 83.5159C141.755 83.3134 141.755 83.1101 141.755 82.9067V68.4982C141.755 68.3361 141.755 68.1233 141.694 67.9294C141.319 66.3053 139.682 65.371 137.245 65.371H127.705C124.892 65.371 123.074 66.5892 123.074 68.4982V82.7952L123.072 82.784Z" fill="#E48E00"/>
<path d="M185.271 54.0982C181.383 53.9932 178.412 54.354 175.873 55.4242C175.151 55.7288 174.001 55.7363 173.883 56.6406C174.28 57.0558 174.342 57.6762 174.656 58.1869C175.263 59.1681 176.288 60.4829 177.2 61.1708C178.197 61.9233 179.225 62.7292 180.296 63.3824C182.2 64.5426 184.324 65.2052 186.156 66.3663C187.236 67.0504 188.308 67.9125 189.362 68.6866C189.882 69.069 190.234 69.6631 190.909 69.9021V69.7915C190.553 69.3389 190.462 68.7166 190.135 68.2452L188.698 66.8086C187.292 64.9343 185.509 63.3065 183.612 61.9448C182.1 60.8596 178.715 59.3939 178.084 57.634L177.973 57.5234C179.046 57.4016 180.301 57.0146 181.292 56.7503C182.954 56.3051 184.44 56.4195 186.158 55.9771L188.48 55.3136V54.8713C187.612 53.981 186.993 52.803 186.047 51.998C183.572 49.8895 180.869 47.7856 178.088 46.0285C176.545 45.0538 174.638 44.4222 173.002 43.5966C172.452 43.3192 171.485 43.1749 171.122 42.7119C170.263 41.6173 169.796 40.2285 169.133 38.9634C167.745 36.2925 166.382 33.3743 165.152 30.5638C164.313 28.6473 163.765 26.7571 162.72 25.0375C157.7 16.7869 152.295 11.8069 143.926 6.91317C142.144 5.87294 140 5.4606 137.733 4.92362L134.085 4.70245C133.342 4.3932 132.57 3.48417 131.872 3.04371C129.099 1.29126 121.986 -2.51634 119.932 2.48143C118.636 5.6424 121.87 8.72653 123.028 10.329C123.84 11.4536 124.88 12.7122 125.46 13.9764C125.841 14.8067 125.908 15.6398 126.234 16.5189C127.038 18.6743 127.737 21.0387 128.777 23.0395C129.302 24.0516 129.881 25.118 130.546 26.0233C130.953 26.5791 131.652 26.8236 131.762 27.6821C131.079 28.6379 131.04 30.1186 130.655 31.3294C128.928 36.7761 129.579 43.545 132.093 47.5766C132.864 48.8136 134.68 51.4676 137.178 50.4499C139.363 49.5596 138.866 46.8044 139.501 44.3716C139.641 43.8187 139.555 43.4157 139.832 43.0455V43.1561L141.823 47.1343C143.295 49.5052 145.91 51.984 148.125 53.6568C149.273 54.5236 150.187 56.0231 151.663 56.53V56.4195H151.552C151.264 55.9696 150.814 55.785 150.446 55.4261C149.58 54.578 148.618 53.5237 147.902 52.5528C145.887 49.8183 144.107 46.8269 142.486 43.7109C141.711 42.2237 141.037 40.5827 140.386 39.0693C140.134 38.4854 140.137 37.6036 139.612 37.3009C138.897 38.4104 137.843 39.3064 137.29 40.6165C136.405 42.71 136.291 45.2628 135.963 47.9112C135.769 47.9805 135.856 47.9327 135.742 48.0218C134.203 47.6506 133.661 46.0659 133.089 44.7062C131.642 41.2668 131.373 35.7321 132.647 31.7755C132.975 30.7521 134.465 27.5265 133.863 26.5809C133.575 25.6372 132.625 25.0815 132.093 24.3693C131.437 23.479 130.779 22.3038 130.324 21.2748C129.139 18.5946 128.586 15.5864 127.339 12.8752C126.743 11.5801 125.736 10.27 124.908 9.12669C123.991 7.85218 122.964 6.91129 122.255 5.37813C122.001 4.8299 121.658 3.95368 122.033 3.38858C122.069 3.22622 122.151 3.07748 122.268 2.95992C122.386 2.84236 122.535 2.76088 122.697 2.72509C123.338 2.23121 125.125 2.88909 125.793 3.16742C127.564 3.90401 129.046 4.60499 130.548 5.5993C131.269 6.06786 131.998 7.00126 132.869 7.25803H133.863C135.419 7.61602 137.162 7.37049 138.616 7.81095C141.186 8.59158 143.489 9.80705 145.581 11.1265C151.954 15.1488 157.164 20.8747 160.728 27.7139C161.302 28.8132 161.549 29.8637 162.055 31.0295C163.074 33.3724 164.357 35.8024 165.372 38.1021C166.384 40.3981 167.368 42.7129 168.799 44.6227C169.551 45.6255 172.455 46.1653 173.774 46.7219C174.7 47.1127 176.215 47.5204 177.091 48.048C178.765 49.0573 180.386 50.2596 181.957 51.3655C182.741 51.9184 185.154 53.1301 185.274 54.1282L185.271 54.0982Z" fill="#00618A"/>
<path fill-rule="evenodd" clip-rule="evenodd" d="M135.852 11.9906C135.041 11.9756 134.468 12.0787 133.861 12.2117V12.3223H133.972C134.358 13.117 135.041 13.6278 135.519 14.3119L136.625 16.6322L136.736 16.5217C137.42 16.039 137.734 15.2678 137.729 14.0898C137.455 13.8011 137.414 13.4394 137.176 13.0945C136.86 12.6353 136.239 12.3748 135.85 11.9887L135.852 11.9906Z" fill="#00618A"/>
<path fill-rule="evenodd" clip-rule="evenodd" d="M182.675 85.9404C182.675 88.7237 184.875 90.5999 187.336 90.5999C189.797 90.5999 191.997 88.7237 191.997 85.9404C191.997 83.1571 189.797 81.2809 187.336 81.2809C184.875 81.2809 182.675 83.1571 182.675 85.9404ZM190.953 85.9404C190.953 88.0527 189.338 89.6309 187.334 89.6309C185.309 89.6309 183.715 88.0527 183.715 85.9404C183.715 83.8281 185.307 82.2499 187.334 82.2499C189.336 82.2499 190.953 83.8281 190.953 85.9404ZM188.59 88.6H189.634L188.106 86.2647C188.926 86.1775 189.547 85.7792 189.547 84.8102C189.547 83.7288 188.862 83.2827 187.546 83.2827H185.469V88.6009H186.365V86.3021H187.197L188.589 88.6009L188.59 88.6ZM186.365 85.5543V84.0268H187.396C187.93 84.0268 188.577 84.1261 188.577 84.7484C188.577 85.4934 187.993 85.5562 187.321 85.5562H186.365V85.5543Z" fill="#E48E00"/>
</svg>
