<svg width="207" height="108" viewBox="0 0 207 108" fill="none" xmlns="http://www.w3.org/2000/svg">
<path d="M103.421 107.671C160.539 107.671 206.842 83.5679 206.842 53.8354C206.842 24.1029 160.539 0 103.421 0C46.3031 0 0 24.1029 0 53.8354C0 83.5679 46.3031 107.671 103.421 107.671Z" fill="#8993BE"/>
<path fill-rule="evenodd" clip-rule="evenodd" d="M29.0425 85.7117L40.3768 28.3342H66.5851C77.9186 29.0427 83.5857 34.7091 83.5857 44.627C83.5857 61.6276 70.1272 71.5447 58.0844 70.8361H45.3353L42.5017 85.7117H29.0425ZM48.1681 60.2112L51.7102 38.9598H60.9187C65.8773 38.9598 69.4186 41.0848 69.4186 45.3348C68.7109 57.3777 63.0437 59.5026 56.6688 60.2112H48.1681ZM80.9525 70.8361L92.286 13.4593H105.745L102.912 28.3342H115.662C126.996 29.0427 131.246 34.7091 129.829 41.7934L124.871 70.8361H110.704L115.662 44.627C116.37 41.0848 116.37 38.9598 111.412 38.9598H100.787L94.4118 70.8361H80.9525ZM123.963 85.7117L135.297 28.3342H161.506C172.84 29.0427 178.507 34.7091 178.507 44.627C178.507 61.6276 165.048 71.5447 153.006 70.8361H140.256L137.422 85.7117H123.963ZM143.088 60.2112L146.63 38.9598H155.84C160.798 38.9598 164.34 41.0848 164.34 45.3348C163.632 57.3777 157.965 59.5026 151.59 60.2112H143.089H143.088Z" fill="#232531"/>
</svg>
