<svg width="192" height="115" viewBox="0 0 192 115" fill="none" xmlns="http://www.w3.org/2000/svg">
<path d="M142.052 0.302552L141.951 0.101016C141.902 0.0514982 141.851 0 141.75 0L141.548 0.051003C141.448 0.151523 141.397 0.202031 141.397 0.302552L137.113 77.8641L137.768 77.7633L141.901 2.31346L146.841 10.4284H146.79C150.52 21.4153 152.082 33.1084 151.477 45.5066L151.779 45.9601L156.668 54.6287L156.97 54.9307C164.48 61.5332 172.897 65.9685 182.221 68.2364L184.489 71.9156L184.791 72.0161L184.842 71.9156L141.95 1.75846L142.051 0.296709M140.54 27.67C145.832 38.5064 147.747 54.8862 146.336 76.8107L166.951 74.2906L140.54 27.67ZM187.513 75.2983C189.629 75.0465 190.99 74.5929 191.595 73.9378L83.688 87.0924C83.7385 91.578 85.7544 95.1061 89.6855 97.6259C90.7437 98.382 91.8529 98.9364 92.8606 99.2897C93.8183 98.1812 94.877 97.3746 96.1372 96.6184H96.1867C107.477 89.7641 124.26 88.7055 146.436 93.3931L146.689 93.4426C149.108 93.9467 151.526 94.5518 153.795 95.2571C154.45 95.3579 155.005 95.1564 155.458 94.7531C156.265 94.1482 157.273 93.6946 158.634 93.3925V93.342C162.212 86.9914 167.05 82.3043 173.099 79.2297C177.282 77.1635 182.121 75.8024 187.513 75.2983M135.702 77.2639L140.641 1.56277C133.484 29.1821 121.993 54.9872 106.217 78.9274L135.702 77.2645M107.931 16.2799L107.729 16.1788L107.528 16.2293L107.427 16.4809L103.344 82.0018L103.949 81.9513L108.031 16.4808L107.93 16.2798M102.186 80.5906L106.52 16.6829L83.689 82.5564L102.186 80.5906Z" fill="#CCCCCC"/>
<path d="M103.092 101.893C97.3967 104.614 93.2639 105.068 90.6435 103.405C88.0225 101.641 83.9903 102.044 78.5474 104.614M116.448 102.296C115.39 101.943 114.231 101.692 113.021 101.59C110.552 101.389 107.578 102.346 104.1 104.413C100.623 106.53 96.44 107.336 91.4496 106.882M147.546 97.155C123.555 92.216 106.268 93.375 95.6839 100.683M162.666 99.5241C161.569 99.1062 160.412 98.8678 159.239 98.8183C156.769 98.6169 153.796 99.5744 150.318 101.641C146.84 103.707 142.658 104.513 137.667 104.11M130.46 16.8845C127.991 15.3722 125.421 15.7753 122.749 18.1442C120.431 15.7758 118.012 15.3722 115.491 16.8845M124.865 8.41698C122.345 6.90521 119.876 7.50982 117.355 10.2313C114.885 7.50982 112.366 6.90521 109.845 8.41698" stroke="#CCCCCC" stroke-width="0.266064" stroke-linecap="round" stroke-linejoin="round"/>
<path d="M2.78773 96.2465H9.46838C11.4757 96.2465 12.9497 96.8179 13.8904 97.9605C14.8313 99.1034 15.136 100.696 14.8058 102.738C14.6704 103.576 14.4288 104.345 14.081 105.046C13.7331 105.746 13.2738 106.386 12.7021 106.965C12.0228 107.661 11.2625 108.16 10.4205 108.462C9.57846 108.763 8.50165 108.913 7.19043 108.913H4.21473L3.47434 113.494H0L2.78773 96.2465ZM5.82078 98.9751L4.65108 106.21H6.76423C8.16493 106.21 9.20307 105.924 9.87888 105.351C10.5542 104.779 10.9997 103.826 11.2153 102.492C11.4231 101.207 11.3023 100.299 10.8538 99.7692C10.405 99.24 9.52077 98.9751 8.20074 98.9751H5.81969M18.7057 91.6654H22.1539L21.4135 96.2465H24.4811C26.4123 96.2465 27.7498 96.6129 28.4958 97.3436C29.242 98.0753 29.4837 99.254 29.2208 100.881L27.9225 108.913H24.4216L25.6573 101.268C25.7979 100.399 25.7298 99.8077 25.4531 99.4944C25.1758 99.1815 24.5972 99.0247 23.7165 99.0247H20.9643L19.3662 108.913H15.9174L18.7052 91.6653M32.9769 96.2465H39.6574C41.6652 96.2465 43.1388 96.8179 44.0795 97.9605C45.0201 99.1034 45.3251 100.696 44.9956 102.738C44.8602 103.576 44.6185 104.345 44.271 105.046C43.9227 105.746 43.4628 106.386 42.8919 106.965C42.2124 107.661 41.4521 108.16 40.6102 108.462C39.7682 108.763 38.6916 108.913 37.3799 108.913H34.4041L33.6638 113.494H30.1896L32.9769 96.2465ZM36.0104 98.9751L34.8411 106.21H36.9543C38.3549 106.21 39.3929 105.924 40.0689 105.351C40.7449 104.779 41.1901 103.826 41.4057 102.492C41.6133 101.207 41.4927 100.299 41.044 99.7692C40.5952 99.24 39.711 98.9751 38.3914 98.9751H36.0109" fill="#6C78AF"/>
<path d="M50.868 88H57.5503L60.4857 104.037L68.6052 88H75.262L71.8847 108.899H67.4234L70.4223 92.6205L62.2353 108.899H57.4009L54.3263 92.4494L52.1242 108.899H47.4902L50.8679 88M83.2814 105.517H86.655L88.5886 93.551H92.7824L90.3685 108.487C90.0408 110.518 89.3067 112.022 88.1675 112.999C87.0286 113.976 85.4475 114.465 83.4262 114.465H75.2023L75.7049 111.356H83.2068C84.0118 111.356 84.6609 111.168 85.154 110.792C85.6464 110.415 85.9512 109.871 86.0664 109.156L86.1082 108.899H82.3961C80.0218 108.899 78.4024 108.446 77.5388 107.541C76.6746 106.636 76.4139 105.126 76.755 103.012L78.285 93.5506H82.4315L80.9524 102.7C80.7655 103.857 80.8216 104.616 81.1224 104.976C81.4227 105.337 82.1422 105.517 83.2815 105.517M104.077 88H108.906L114.759 108.899H109.694L108.51 103.925H99.1044L96.3717 108.899H91.5421L104.077 88ZM105.644 92.1499L101.179 100.194H107.627L105.644 92.1499ZM130.569 108.899H122.513C120.078 108.899 118.291 108.207 117.149 106.822C116.008 105.438 115.638 103.508 116.038 101.033C116.203 100.018 116.495 99.0871 116.917 98.2381C117.339 97.3891 117.896 96.6141 118.589 95.9122C119.412 95.0684 120.337 94.4639 121.363 94.0987C122.39 93.7336 123.693 93.5511 125.273 93.5511H128.871L129.768 88.0002H133.947L130.569 108.899ZM126.923 105.608L128.337 96.8572H125.801C124.1 96.8572 122.838 97.2013 122.014 97.8887C121.191 98.5767 120.648 99.7222 120.389 101.325C120.138 102.881 120.286 103.984 120.835 104.633C121.384 105.283 122.455 105.608 124.047 105.608H126.923ZM136.695 93.5509H152.8C155.135 93.5509 156.747 93.992 157.634 94.873C158.521 95.7545 158.805 97.1856 158.486 99.1663L156.912 108.899H152.687L154.174 99.6926C154.358 98.5639 154.301 97.8194 154.007 97.4586C153.711 97.0982 153.016 96.9179 151.918 96.9179H149.566L147.63 108.899H143.341L145.278 96.9179H140.377L138.44 108.899H134.215L136.696 93.551M167.823 91.8068H163.425L164.04 88H168.439L167.823 91.8068ZM165.061 108.899H160.663L163.143 93.551H167.541L165.061 108.899M171.169 93.5509H179.059C181.444 93.5509 183.077 93.9848 183.957 94.8517C184.837 95.7191 185.115 97.1573 184.79 99.1663L183.218 108.899H179.023L180.516 99.6642C180.702 98.5163 180.638 97.7716 180.325 97.431C180.011 97.0893 179.3 96.9184 178.191 96.9184H174.818L172.882 108.9H168.688L171.169 93.5516" fill="#F89C0E"/>
</svg>
