<svg width="98" height="98" viewBox="0 0 98 98" fill="none" xmlns="http://www.w3.org/2000/svg">
<path d="M6.92125 49C6.92125 65.6906 16.5069 80.0691 30.5025 86.8158L10.6514 31.9572C8.34531 37.2829 6.92125 42.9669 6.92125 49ZM77.4047 46.8685C77.4047 41.7235 75.4508 37.9873 73.8522 35.329C71.7207 31.7765 69.7699 28.9376 69.7699 25.3881C69.7699 21.4834 72.7895 17.9309 76.8749 17.9309H77.4077C69.9475 11.0066 60.0066 6.92125 49 6.92125C42.0363 6.98291 35.1932 8.74597 29.0666 12.0569C22.94 15.3679 17.7157 20.1263 13.8486 25.9179H16.513C20.9536 25.9179 27.6972 25.3851 27.6972 25.3851C30.0064 25.2074 30.184 28.5793 28.0525 28.9376C28.0525 28.9376 25.7434 29.2928 23.2597 29.2928L38.5293 74.7403L47.7597 47.2207L41.1906 29.2898L36.75 28.9406C34.4409 28.763 34.7961 25.3881 36.9276 25.3881C36.9276 25.3881 43.8489 25.921 47.9342 25.921C52.3749 25.921 59.1185 25.3881 59.1185 25.3881C61.4276 25.2105 61.6053 28.5823 59.4738 28.9406C59.4738 28.9406 57.1646 29.2959 54.6809 29.2959L69.9475 74.5719L74.235 60.5456C76.0112 54.6871 77.4292 50.6047 77.4292 46.8746L77.4047 46.8685ZM49.7105 52.7271L37.1053 89.3025C40.8323 90.3682 44.9146 91.0788 49 91.0788C53.9704 91.0788 58.5856 90.16 63.0262 88.7696C62.8486 88.592 62.8486 88.4144 62.671 88.2367L49.7105 52.7271ZM85.9276 28.9406L86.2829 33.2281C86.2829 37.5156 85.5724 42.2839 83.0887 48.3201L70.3058 85.4254C82.7334 78.1458 91.2533 64.6524 91.2533 49.0306C91.0757 41.7511 89.1218 35.0044 85.9246 28.9713L85.9276 28.9406ZM49 0C22.0132 0 0 22.0132 0 49C0 75.9867 22.0132 98 49 98C75.9867 98 98 75.9867 98 49C98 22.0132 75.9867 0 49 0ZM49 95.8685C23.2566 95.8685 2.30912 74.921 2.30912 49C2.32856 36.6228 7.25401 24.7581 16.006 16.006C24.7581 7.25401 36.6228 2.32856 49 2.30912C61.3772 2.32856 73.2419 7.25401 81.994 16.006C90.746 24.7581 95.6714 36.6228 95.6909 49C95.6909 74.921 74.7434 95.8685 49 95.8685Z" fill="#00749A"/>
</svg>
